<svg xmlns="http://www.w3.org/2000/svg" xmlns:xlink="http://www.w3.org/1999/xlink" width="828" height="478.78"><rect width="828" height="478.78" rx="5" ry="5" class="a"/><svg y="0%" x="0%"><circle cx="20" cy="20" r="6" fill="#ff5f58"/><circle cx="40" cy="20" r="6" fill="#ffbd2e"/><circle cx="60" cy="20" r="6" fill="#18c132"/></svg><svg height="390.78" viewBox="0 0 76 39.078" width="760" x="29" xmlns="http://www.w3.org/2000/svg" xmlns:xlink="http://www.w3.org/1999/xlink" y="64"><style>@keyframes j{0%{transform:translateX(0)}9.6%{transform:translateX(-76px)}10.2%{transform:translateX(-152px)}10.9%{transform:translateX(-228px)}11.5%{transform:translateX(-304px)}12.2%{transform:translateX(-380px)}12.8%{transform:translateX(-456px)}13.4%{transform:translateX(-532px)}14.1%{transform:translateX(-608px)}14.7%{transform:translateX(-684px)}15.4%{transform:translateX(-760px)}16%{transform:translateX(-836px)}16.6%{transform:translateX(-912px)}17.3%{transform:translateX(-988px)}17.9%{transform:translateX(-1064px)}18.6%{transform:translateX(-1140px)}19.2%{transform:translateX(-1216px)}19.8%{transform:translateX(-1292px)}20.5%{transform:translateX(-1368px)}21.1%{transform:translateX(-1444px)}21.8%{transform:translateX(-1520px)}22.4%{transform:translateX(-1596px)}23%{transform:translateX(-1672px)}23.7%{transform:translateX(-1748px)}24.3%{transform:translateX(-1824px)}31.5%{transform:translateX(-1900px)}36.3%{transform:translateX(-1976px)}37.3%{transform:translateX(-2052px)}38.2%{transform:translateX(-2128px)}39.2%{transform:translateX(-2204px)}40.2%{transform:translateX(-2280px)}41.1%{transform:translateX(-2356px)}42.1%{transform:translateX(-2432px)}43%{transform:translateX(-2508px)}44%{transform:translateX(-2584px)}45%{transform:translateX(-2660px)}45.9%{transform:translateX(-2736px)}46.9%{transform:translateX(-2812px)}47.8%{transform:translateX(-2888px)}48.8%{transform:translateX(-2964px)}to{transform:translateX(-3040px)}}.a{fill:#282d35}.f,.g{white-space:pre}.f{fill:#a8cc8c;font-weight:700}.g{fill:#b9c0cb}</style><g font-family="Monaco,Consolas,Menlo,'Bitstream Vera Sans Mono','Powerline Symbols',monospace" font-size="1.67"><defs><symbol id="1"><text y="1.67" class="f">$</text><text x="2.004" y="1.67" class="g">bootstrap-doctor</text></symbol><symbol id="2"><text y="1.67" class="f">$</text><text x="2.004" y="1.67" class="g">bootstrap-doctor</text><text x="19.038" y="1.67" class="g">status</text></symbol><symbol id="3"><text y="1.67" class="g">bootstrap-doctor</text><text x="17.034" y="1.67" class="g">status</text><text x="25.05" y="1.67" class="g">(soft=10000,</text><text x="38.076" y="1.67" class="g">hard=11500,</text><text x="50.1" y="1.67" class="g">ceiling=12000)</text></symbol><symbol id="4"><text y="1.67" class="g">workspace</text><text x="11.022" y="1.67" class="g">~/agent-workspace</text></symbol><symbol id="5"><text x="2.004" y="1.67" class="g">file</text><text x="19.038" y="1.67" class="g">chars</text><text x="26.052" y="1.67" class="g">lines</text><text x="34.068" y="1.67" class="g">soft</text><text x="42.084" y="1.67" class="g">hard</text><text x="48.096" y="1.67" class="g">sev</text></symbol><symbol id="6"><text x="2.004" y="1.67" class="g">AGENTS.md</text><text x="20.04" y="1.67" class="g">7360</text><text x="29.058" y="1.67" class="g">72</text><text x="33.066" y="1.67" class="g">+2640</text><text x="41.082" y="1.67" class="g">+4140</text><text x="48.096" y="1.67" class="g">ok</text></symbol><symbol id="7"><text x="2.004" y="1.67" class="g">TOOLS.md</text><text x="20.04" y="1.67" class="g">4284</text><text x="29.058" y="1.67" class="g">47</text><text x="33.066" y="1.67" class="g">+5716</text><text x="41.082" y="1.67" class="g">+7216</text><text x="48.096" y="1.67" class="g">ok</text></symbol><symbol id="8"><text x="2.004" y="1.67" class="g">SOUL.md</text><text x="19.038" y="1.67" class="g">18188</text><text x="29.058" y="1.67" class="g">92</text><text x="33.066" y="1.67" class="g">-8188</text><text x="41.082" y="1.67" class="g">-6688</text><text x="48.096" y="1.67" class="g">HARD</text></symbol><symbol id="9"><text x="2.004" y="1.67" class="g">USER.md</text><text x="20.04" y="1.67" class="g">1214</text><text x="29.058" y="1.67" class="g">20</text><text x="33.066" y="1.67" class="g">+8786</text><text x="40.08" y="1.67" class="g">+10286</text><text x="48.096" y="1.67" class="g">ok</text></symbol><symbol id="10"><text x="2.004" y="1.67" class="g">SAFETY_RULES.md</text><text x="20.04" y="1.67" class="g">2032</text><text x="29.058" y="1.67" class="g">30</text><text x="33.066" y="1.67" class="g">+7968</text><text x="41.082" y="1.67" class="g">+9468</text><text x="48.096" y="1.67" class="g">ok</text></symbol><symbol id="11"><text x="2.004" y="1.67" class="g">IDENTITY.md</text><text x="21.042" y="1.67" class="g">628</text><text x="29.058" y="1.67" class="g">16</text><text x="33.066" y="1.67" class="g">+9372</text><text x="40.08" y="1.67" class="g">+10872</text><text x="48.096" y="1.67" class="g">ok</text></symbol><symbol id="12"><text x="2.004" y="1.67" class="g">HEARTBEAT.md</text><text x="21.042" y="1.67" class="g">601</text><text x="29.058" y="1.67" class="g">14</text><text x="33.066" y="1.67" class="g">+9399</text><text x="40.08" y="1.67" class="g">+10899</text><text x="48.096" y="1.67" class="g">ok</text></symbol><symbol id="13"><text x="2.004" y="1.67" class="g">MEMORY.md</text><text x="21.042" y="1.67" class="g">912</text><text x="29.058" y="1.67" class="g">18</text><text x="33.066" y="1.67" class="g">+9088</text><text x="40.08" y="1.67" class="g">+10588</text><text x="48.096" y="1.67" class="g">ok</text></symbol><symbol id="14"><text y="1.67" class="g">summary:</text><text x="9.018" y="1.67" class="g">8</text><text x="11.022" y="1.67" class="g">files,</text><text x="18.036" y="1.67" class="g">1</text><text x="20.04" y="1.67" class="g">over</text><text x="25.05" y="1.67" class="g">hard,</text><text x="31.062" y="1.67" class="g">0</text><text x="33.066" y="1.67" class="g">over</text><text x="38.076" y="1.67" class="g">soft,</text><text x="44.088" y="1.67" class="g">0</text><text x="46.092" y="1.67" class="g">missing</text></symbol><symbol id="a"><path fill="transparent" d="M0 0h76v19H0z"/></symbol><symbol id="b"><path fill="#6f7683" d="M0 0h1.102v2.171H0z"/></symbol></defs><path class="a" d="M0 0h76v39.078H0z"/><g style="animation-duration:6.25s;animation-iteration-count:infinite;animation-name:j;animation-timing-function:steps(1,end)"><svg width="3116"><svg><use xlink:href="#a"/><use xlink:href="#b" x="-.004"/></svg><svg x="76"><use xlink:href="#a"/><use xlink:href="#b" x="1.996"/><text y="1.67" class="f">$</text></svg><svg x="152"><use xlink:href="#a"/><use xlink:href="#b" x="2.996"/><text y="1.67" class="f">$</text><text x="2.004" y="1.67" class="g">b</text></svg><svg x="228"><use xlink:href="#a"/><use xlink:href="#b" x="3.996"/><text y="1.67" class="f">$</text><text x="2.004" y="1.67" class="g">bo</text></svg><svg x="304"><use xlink:href="#a"/><use xlink:href="#b" x="4.996"/><text y="1.67" class="f">$</text><text x="2.004" y="1.67" class="g">boo</text></svg><svg x="380"><use xlink:href="#a"/><use xlink:href="#b" x="5.996"/><text y="1.67" class="f">$</text><text x="2.004" y="1.67" class="g">boot</text></svg><svg x="456"><use xlink:href="#a"/><use xlink:href="#b" x="6.996"/><text y="1.67" class="f">$</text><text x="2.004" y="1.67" class="g">boots</text></svg><svg x="532"><use xlink:href="#a"/><use xlink:href="#b" x="7.996"/><text y="1.67" class="f">$</text><text x="2.004" y="1.67" class="g">bootst</text></svg><svg x="608"><use xlink:href="#a"/><use xlink:href="#b" x="8.996"/><text y="1.67" class="f">$</text><text x="2.004" y="1.67" class="g">bootstr</text></svg><svg x="684"><use xlink:href="#a"/><use xlink:href="#b" x="9.996"/><text y="1.67" class="f">$</text><text x="2.004" y="1.67" class="g">bootstra</text></svg><svg x="760"><use xlink:href="#a"/><use xlink:href="#b" x="10.996"/><text y="1.67" class="f">$</text><text x="2.004" y="1.67" class="g">bootstrap</text></svg><svg x="836"><use xlink:href="#a"/><use xlink:href="#b" x="11.996"/><text y="1.67" class="f">$</text><text x="2.004" y="1.67" class="g">bootstrap-</text></svg><svg x="912"><use xlink:href="#a"/><use xlink:href="#b" x="12.996"/><text y="1.67" class="f">$</text><text x="2.004" y="1.67" class="g">bootstrap-d</text></svg><svg x="988"><use xlink:href="#a"/><use xlink:href="#b" x="13.996"/><text y="1.67" class="f">$</text><text x="2.004" y="1.67" class="g">bootstrap-do</text></svg><svg x="1064"><use xlink:href="#a"/><use xlink:href="#b" x="14.996"/><text y="1.67" class="f">$</text><text x="2.004" y="1.67" class="g">bootstrap-doc</text></svg><svg x="1140"><use xlink:href="#a"/><use xlink:href="#b" x="15.996"/><text y="1.67" class="f">$</text><text x="2.004" y="1.67" class="g">bootstrap-doct</text></svg><svg x="1216"><use xlink:href="#a"/><use xlink:href="#b" x="16.996"/><text y="1.67" class="f">$</text><text x="2.004" y="1.67" class="g">bootstrap-docto</text></svg><svg x="1292"><use xlink:href="#a"/><use xlink:href="#b" x="17.996"/><use xlink:href="#1"/></svg><svg x="1368"><use xlink:href="#a"/><use xlink:href="#b" x="18.996"/><use xlink:href="#1"/></svg><svg x="1444"><use xlink:href="#a"/><use xlink:href="#b" x="19.996"/><text y="1.67" class="f">$</text><text x="2.004" y="1.67" class="g">bootstrap-doctor</text><text x="19.038" y="1.67" class="g">s</text></svg><svg x="1520"><use xlink:href="#a"/><use xlink:href="#b" x="20.996"/><text y="1.67" class="f">$</text><text x="2.004" y="1.67" class="g">bootstrap-doctor</text><text x="19.038" y="1.67" class="g">st</text></svg><svg x="1596"><use xlink:href="#a"/><use xlink:href="#b" x="21.996"/><text y="1.67" class="f">$</text><text x="2.004" y="1.67" class="g">bootstrap-doctor</text><text x="19.038" y="1.67" class="g">sta</text></svg><svg x="1672"><use xlink:href="#a"/><use xlink:href="#b" x="22.996"/><text y="1.67" class="f">$</text><text x="2.004" y="1.67" class="g">bootstrap-doctor</text><text x="19.038" y="1.67" class="g">stat</text></svg><svg x="1748"><use xlink:href="#a"/><use xlink:href="#b" x="23.996"/><text y="1.67" class="f">$</text><text x="2.004" y="1.67" class="g">bootstrap-doctor</text><text x="19.038" y="1.67" class="g">statu</text></svg><svg x="1824"><use xlink:href="#a"/><use xlink:href="#b" x="24.996"/><use xlink:href="#2"/></svg><svg x="1900"><use xlink:href="#a"/><use xlink:href="#b" x="-.004" y="2.146"/><use xlink:href="#2"/></svg><svg x="1976"><use xlink:href="#a"/><use xlink:href="#b" x="-.004" y="4.317"/><use xlink:href="#2"/><use xlink:href="#3" y="2.171"/></svg><svg x="2052"><use xlink:href="#a"/><use xlink:href="#b" x="-.004" y="6.488"/><use xlink:href="#2"/><use xlink:href="#3" y="2.171"/></svg><svg x="2128"><use xlink:href="#a"/><use xlink:href="#b" x="-.004" y="8.659"/><use xlink:href="#2"/><use xlink:href="#3" y="2.171"/><use xlink:href="#4" y="6.513"/></svg><svg x="2204"><use xlink:href="#a"/><use xlink:href="#b" x="-.004" y="10.83"/><use xlink:href="#2"/><use xlink:href="#3" y="2.171"/><use xlink:href="#4" y="6.513"/><use xlink:href="#5" y="8.684"/></svg><svg x="2280"><use xlink:href="#a"/><use xlink:href="#b" x="-.004" y="13.001"/><use xlink:href="#2"/><use xlink:href="#3" y="2.171"/><use xlink:href="#4" y="6.513"/><use xlink:href="#5" y="8.684"/><use xlink:href="#6" y="10.855"/></svg><svg x="2356"><use xlink:href="#a"/><use xlink:href="#b" x="-.004" y="15.172"/><use xlink:href="#2"/><use xlink:href="#3" y="2.171"/><use xlink:href="#4" y="6.513"/><use xlink:href="#5" y="8.684"/><use xlink:href="#6" y="10.855"/><use xlink:href="#7" y="13.026"/></svg><svg x="2432"><use xlink:href="#a"/><use xlink:href="#b" x="-.004" y="17.343"/><use xlink:href="#2"/><use xlink:href="#3" y="2.171"/><use xlink:href="#4" y="6.513"/><use xlink:href="#5" y="8.684"/><use xlink:href="#6" y="10.855"/><use xlink:href="#7" y="13.026"/><use xlink:href="#8" y="15.197"/></svg><svg x="2508"><use xlink:href="#a"/><use xlink:href="#b" x="-.004" y="19.514"/><use xlink:href="#2"/><use xlink:href="#3" y="2.171"/><use xlink:href="#4" y="6.513"/><use xlink:href="#5" y="8.684"/><use xlink:href="#6" y="10.855"/><use xlink:href="#7" y="13.026"/><use xlink:href="#8" y="15.197"/><use xlink:href="#9" y="17.368"/></svg><svg x="2584"><use xlink:href="#a"/><use xlink:href="#b" x="-.004" y="21.685"/><use xlink:href="#2"/><use xlink:href="#3" y="2.171"/><use xlink:href="#4" y="6.513"/><use xlink:href="#5" y="8.684"/><use xlink:href="#6" y="10.855"/><use xlink:href="#7" y="13.026"/><use xlink:href="#8" y="15.197"/><use xlink:href="#9" y="17.368"/><use xlink:href="#10" y="19.539"/></svg><svg x="2660"><use xlink:href="#a"/><use xlink:href="#b" x="-.004" y="23.856"/><use xlink:href="#2"/><use xlink:href="#3" y="2.171"/><use xlink:href="#4" y="6.513"/><use xlink:href="#5" y="8.684"/><use xlink:href="#6" y="10.855"/><use xlink:href="#7" y="13.026"/><use xlink:href="#8" y="15.197"/><use xlink:href="#9" y="17.368"/><use xlink:href="#10" y="19.539"/><use xlink:href="#11" y="21.71"/></svg><svg x="2736"><use xlink:href="#a"/><use xlink:href="#b" x="-.004" y="26.027"/><use xlink:href="#2"/><use xlink:href="#3" y="2.171"/><use xlink:href="#4" y="6.513"/><use xlink:href="#5" y="8.684"/><use xlink:href="#6" y="10.855"/><use xlink:href="#7" y="13.026"/><use xlink:href="#8" y="15.197"/><use xlink:href="#9" y="17.368"/><use xlink:href="#10" y="19.539"/><use xlink:href="#11" y="21.71"/><use xlink:href="#12" y="23.881"/></svg><svg x="2812"><use xlink:href="#a"/><use xlink:href="#b" x="-.004" y="28.198"/><use xlink:href="#2"/><use xlink:href="#3" y="2.171"/><use xlink:href="#4" y="6.513"/><use xlink:href="#5" y="8.684"/><use xlink:href="#6" y="10.855"/><use xlink:href="#7" y="13.026"/><use xlink:href="#8" y="15.197"/><use xlink:href="#9" y="17.368"/><use xlink:href="#10" y="19.539"/><use xlink:href="#11" y="21.71"/><use xlink:href="#12" y="23.881"/><use xlink:href="#13" y="26.052"/></svg><svg x="2888"><use xlink:href="#a"/><use xlink:href="#b" x="-.004" y="30.369"/><use xlink:href="#2"/><use xlink:href="#3" y="2.171"/><use xlink:href="#4" y="6.513"/><use xlink:href="#5" y="8.684"/><use xlink:href="#6" y="10.855"/><use xlink:href="#7" y="13.026"/><use xlink:href="#8" y="15.197"/><use xlink:href="#9" y="17.368"/><use xlink:href="#10" y="19.539"/><use xlink:href="#11" y="21.71"/><use xlink:href="#12" y="23.881"/><use xlink:href="#13" y="26.052"/></svg><svg x="2964"><use xlink:href="#a"/><use xlink:href="#b" x="-.004" y="32.54"/><use xlink:href="#2"/><use xlink:href="#3" y="2.171"/><use xlink:href="#4" y="6.513"/><use xlink:href="#5" y="8.684"/><use xlink:href="#6" y="10.855"/><use xlink:href="#7" y="13.026"/><use xlink:href="#8" y="15.197"/><use xlink:href="#9" y="17.368"/><use xlink:href="#10" y="19.539"/><use xlink:href="#11" y="21.71"/><use xlink:href="#12" y="23.881"/><use xlink:href="#13" y="26.052"/><use xlink:href="#14" y="30.394"/></svg><svg x="3040"><use xlink:href="#a"/><use xlink:href="#b" x="-.004" y="32.54"/><use xlink:href="#2"/><use xlink:href="#3" y="2.171"/><use xlink:href="#4" y="6.513"/><use xlink:href="#5" y="8.684"/><use xlink:href="#6" y="10.855"/><use xlink:href="#7" y="13.026"/><use xlink:href="#8" y="15.197"/><use xlink:href="#9" y="17.368"/><use xlink:href="#10" y="19.539"/><use xlink:href="#11" y="21.71"/><use xlink:href="#12" y="23.881"/><use xlink:href="#13" y="26.052"/><use xlink:href="#14" y="30.394"/></svg></svg></g></g></svg></svg>