<svg xmlns="http://www.w3.org/2000/svg" xmlns:xlink="http://www.w3.org/1999/xlink" width="908" height="652.46"><rect width="908" height="652.46" rx="5" ry="5" class="a"/><svg y="0%" x="0%"><circle cx="20" cy="20" r="6" fill="#ff5f58"/><circle cx="40" cy="20" r="6" fill="#ffbd2e"/><circle cx="60" cy="20" r="6" fill="#18c132"/></svg><svg height="564.46" viewBox="0 0 84 56.446" width="840" x="29" xmlns="http://www.w3.org/2000/svg" xmlns:xlink="http://www.w3.org/1999/xlink" y="64"><style>@keyframes j{0%{transform:translateX(0)}3.8%{transform:translateX(-84px)}4%{transform:translateX(-168px)}4.3%{transform:translateX(-252px)}4.5%{transform:translateX(-336px)}4.8%{transform:translateX(-420px)}5%{transform:translateX(-504px)}5.3%{transform:translateX(-588px)}5.5%{transform:translateX(-672px)}5.8%{transform:translateX(-756px)}6%{transform:translateX(-840px)}6.3%{transform:translateX(-924px)}6.5%{transform:translateX(-1008px)}6.8%{transform:translateX(-1092px)}7%{transform:translateX(-1176px)}7.2%{transform:translateX(-1260px)}7.5%{transform:translateX(-1344px)}10.3%{transform:translateX(-1428px)}12.2%{transform:translateX(-1512px)}22.2%{transform:translateX(-1596px)}22.4%{transform:translateX(-1680px)}22.7%{transform:translateX(-1764px)}22.9%{transform:translateX(-1848px)}23.2%{transform:translateX(-1932px)}23.4%{transform:translateX(-2016px)}23.7%{transform:translateX(-2100px)}23.9%{transform:translateX(-2184px)}24.2%{transform:translateX(-2268px)}24.4%{transform:translateX(-2352px)}24.7%{transform:translateX(-2436px)}24.9%{transform:translateX(-2520px)}25.2%{transform:translateX(-2604px)}25.4%{transform:translateX(-2688px)}25.7%{transform:translateX(-2772px)}25.9%{transform:translateX(-2856px)}28.7%{transform:translateX(-2940px)}30.6%{transform:translateX(-3024px)}40.6%{transform:translateX(-3108px)}40.9%{transform:translateX(-3192px)}41.1%{transform:translateX(-3276px)}41.4%{transform:translateX(-3360px)}41.6%{transform:translateX(-3444px)}41.9%{transform:translateX(-3528px)}42.1%{transform:translateX(-3612px)}42.4%{transform:translateX(-3696px)}42.6%{transform:translateX(-3780px)}42.9%{transform:translateX(-3864px)}43.1%{transform:translateX(-3948px)}43.4%{transform:translateX(-4032px)}43.6%{transform:translateX(-4116px)}43.9%{transform:translateX(-4200px)}44.1%{transform:translateX(-4284px)}44.4%{transform:translateX(-4368px)}44.6%{transform:translateX(-4452px)}44.9%{transform:translateX(-4536px)}45.1%{transform:translateX(-4620px)}45.4%{transform:translateX(-4704px)}45.6%{transform:translateX(-4788px)}45.9%{transform:translateX(-4872px)}46.1%{transform:translateX(-4956px)}46.4%{transform:translateX(-5040px)}46.6%{transform:translateX(-5124px)}46.9%{transform:translateX(-5208px)}47.1%{transform:translateX(-5292px)}47.4%{transform:translateX(-5376px)}47.6%{transform:translateX(-5460px)}50.4%{transform:translateX(-5544px)}52.3%{transform:translateX(-5628px)}62.3%{transform:translateX(-5712px)}62.6%{transform:translateX(-5796px)}62.8%{transform:translateX(-5880px)}63.1%{transform:translateX(-5964px)}63.3%{transform:translateX(-6048px)}63.6%{transform:translateX(-6132px)}63.8%{transform:translateX(-6216px)}64.1%{transform:translateX(-6300px)}64.3%{transform:translateX(-6384px)}64.6%{transform:translateX(-6468px)}64.8%{transform:translateX(-6552px)}65.1%{transform:translateX(-6636px)}65.3%{transform:translateX(-6720px)}65.6%{transform:translateX(-6804px)}65.8%{transform:translateX(-6888px)}66.1%{transform:translateX(-6972px)}66.3%{transform:translateX(-7056px)}66.6%{transform:translateX(-7140px)}66.8%{transform:translateX(-7224px)}67.1%{transform:translateX(-7308px)}67.3%{transform:translateX(-7392px)}67.6%{transform:translateX(-7476px)}67.8%{transform:translateX(-7560px)}68.1%{transform:translateX(-7644px)}68.3%{transform:translateX(-7728px)}68.6%{transform:translateX(-7812px)}68.8%{transform:translateX(-7896px)}69.1%{transform:translateX(-7980px)}69.3%{transform:translateX(-8064px)}69.6%{transform:translateX(-8148px)}69.8%{transform:translateX(-8232px)}70.1%{transform:translateX(-8316px)}72.9%{transform:translateX(-8400px)}74.8%{transform:translateX(-8484px)}75.1%{transform:translateX(-8568px)}75.5%{transform:translateX(-8652px)}75.9%{transform:translateX(-8736px)}76.3%{transform:translateX(-8820px)}76.6%{transform:translateX(-8904px)}77%{transform:translateX(-8988px)}77.4%{transform:translateX(-9072px)}77.8%{transform:translateX(-9156px)}78.1%{transform:translateX(-9240px)}78.5%{transform:translateX(-9324px)}78.9%{transform:translateX(-9408px)}79.3%{transform:translateX(-9492px)}79.6%{transform:translateX(-9576px)}80%{transform:translateX(-9660px)}to{transform:translateX(-9744px)}}.a{fill:#282d35}.f,.g{white-space:pre}.f{fill:#a8cc8c;font-weight:700}.g{fill:#b9c0cb}</style><g font-family="Monaco,Consolas,Menlo,'Bitstream Vera Sans Mono','Powerline Symbols',monospace" font-size="1.67"><defs><symbol id="1"><text y="1.67" class="f">$</text></symbol><symbol id="2"><text y="1.67" class="f">$</text><text x="2.004" y="1.67" class="g">g</text></symbol><symbol id="3"><text y="1.67" class="f">$</text><text x="2.004" y="1.67" class="g">gr</text></symbol><symbol id="4"><text y="1.67" class="f">$</text><text x="2.004" y="1.67" class="g">gra</text></symbol><symbol id="5"><text y="1.67" class="f">$</text><text x="2.004" y="1.67" class="g">grap</text></symbol><symbol id="6"><text y="1.67" class="f">$</text><text x="2.004" y="1.67" class="g">graph</text></symbol><symbol id="7"><text y="1.67" class="f">$</text><text x="2.004" y="1.67" class="g">grapht</text></symbol><symbol id="8"><text y="1.67" class="f">$</text><text x="2.004" y="1.67" class="g">graphtr</text></symbol><symbol id="9"><text y="1.67" class="f">$</text><text x="2.004" y="1.67" class="g">graphtra</text></symbol><symbol id="10"><text y="1.67" class="f">$</text><text x="2.004" y="1.67" class="g">graphtrai</text></symbol><symbol id="11"><text y="1.67" class="f">$</text><text x="2.004" y="1.67" class="g">graphtrail</text></symbol><symbol id="12"><text y="1.67" class="f">$</text><text x="2.004" y="1.67" class="g">graphtrail</text><text x="13.026" y="1.67" class="g">init</text></symbol><symbol id="13"><text y="1.67" class="g">initialized</text><text x="12.024" y="1.67" class="g">./.graphtrail/graphtrail.db</text></symbol><symbol id="14"><text y="1.67" class="f">$</text><text x="2.004" y="1.67" class="g">graphtrail</text><text x="13.026" y="1.67" class="g">sync</text></symbol><symbol id="15"><text y="1.67" class="g">indexed</text><text x="8.016" y="1.67" class="g">files=2</text><text x="16.032" y="1.67" class="g">symbols=6</text><text x="26.052" y="1.67" class="g">calls=5</text><text x="34.068" y="1.67" class="g">imports=1</text><text x="44.088" y="1.67" class="g">deleted=0</text><text x="54.108" y="1.67" class="g">db=./.graphtrail/graphtrail.db</text></symbol><symbol id="16"><text y="1.67" class="f">$</text><text x="2.004" y="1.67" class="g">graphtrail</text><text x="13.026" y="1.67" class="g">c</text></symbol><symbol id="17"><text y="1.67" class="f">$</text><text x="2.004" y="1.67" class="g">graphtrail</text><text x="13.026" y="1.67" class="g">callers</text></symbol><symbol id="18"><text y="1.67" class="f">$</text><text x="2.004" y="1.67" class="g">graphtrail</text><text x="13.026" y="1.67" class="g">callers</text><text x="21.042" y="1.67" class="g">summarize</text></symbol><symbol id="19"><text y="1.67" class="g">build_report</text><text x="13.026" y="1.67" class="g">--calls@9--&gt;</text><text x="26.052" y="1.67" class="g">summarize</text><text x="37.074" y="1.67" class="g">(app.py</text><text x="45.09" y="1.67" class="g">-&gt;</text><text x="48.096" y="1.67" class="g">app.py)</text></symbol><symbol id="20"><text y="1.67" class="f">$</text><text x="2.004" y="1.67" class="g">graphtrail</text><text x="13.026" y="1.67" class="g">context</text></symbol><symbol id="21"><text y="1.67" class="f">$</text><text x="2.004" y="1.67" class="g">graphtrail</text><text x="13.026" y="1.67" class="g">context</text><text x="21.042" y="1.67" class="g">build_report</text></symbol><symbol id="22"><text y="1.67" class="g">#</text><text x="2.004" y="1.67" class="g">Context</text></symbol><symbol id="23"><text y="1.67" class="g">task:</text><text x="6.012" y="1.67" class="g">build_report</text></symbol><symbol id="24"><text y="1.67" class="g">##</text><text x="3.006" y="1.67" class="g">Entry</text><text x="9.018" y="1.67" class="g">Points</text></symbol><symbol id="25"><text y="1.67" class="g">-</text><text x="2.004" y="1.67" class="g">function</text><text x="11.022" y="1.67" class="g">`build_report`</text><text x="26.052" y="1.67" class="g">at</text><text x="29.058" y="1.67" class="g">app.py:8</text></symbol><symbol id="26"><text y="1.67" class="g">##</text><text x="3.006" y="1.67" class="g">Callers</text></symbol><symbol id="27"><text y="1.67" class="g">-</text><text x="2.004" y="1.67" class="g">`main`</text><text x="9.018" y="1.67" class="g">calls</text><text x="15.03" y="1.67" class="g">`build_report`</text></symbol><symbol id="28"><text y="1.67" class="g">##</text><text x="3.006" y="1.67" class="g">Callees</text></symbol><symbol id="29"><text y="1.67" class="g">-</text><text x="2.004" y="1.67" class="g">`build_report`</text><text x="17.034" y="1.67" class="g">calls</text><text x="23.046" y="1.67" class="g">`summarize`</text></symbol><symbol id="30"><text y="1.67" class="g">##</text><text x="3.006" y="1.67" class="g">Related</text><text x="11.022" y="1.67" class="g">Files</text></symbol><symbol id="31"><text y="1.67" class="g">-</text><text x="2.004" y="1.67" class="g">app.py</text></symbol><symbol id="a"><path fill="transparent" d="M0 0h84v27H0z"/></symbol><symbol id="b"><path fill="#6f7683" d="M0 0h1.102v2.171H0z"/></symbol></defs><path class="a" d="M0 0h84v56.446H0z"/><g style="animation-duration:16s;animation-iteration-count:infinite;animation-name:j;animation-timing-function:steps(1,end)"><svg width="9828"><svg><use xlink:href="#a"/><use xlink:href="#b" x="-.004"/></svg><svg x="84"><use xlink:href="#a"/><use xlink:href="#b" x="1.996"/><use xlink:href="#1"/></svg><svg x="168"><use xlink:href="#a"/><use xlink:href="#b" x="2.996"/><use xlink:href="#2"/></svg><svg x="252"><use xlink:href="#a"/><use xlink:href="#b" x="3.996"/><use xlink:href="#3"/></svg><svg x="336"><use xlink:href="#a"/><use xlink:href="#b" x="4.996"/><use xlink:href="#4"/></svg><svg x="420"><use xlink:href="#a"/><use xlink:href="#b" x="5.996"/><use xlink:href="#5"/></svg><svg x="504"><use xlink:href="#a"/><use xlink:href="#b" x="6.996"/><use xlink:href="#6"/></svg><svg x="588"><use xlink:href="#a"/><use xlink:href="#b" x="7.996"/><use xlink:href="#7"/></svg><svg x="672"><use xlink:href="#a"/><use xlink:href="#b" x="8.996"/><use xlink:href="#8"/></svg><svg x="756"><use xlink:href="#a"/><use xlink:href="#b" x="9.996"/><use xlink:href="#9"/></svg><svg x="840"><use xlink:href="#a"/><use xlink:href="#b" x="10.996"/><use xlink:href="#10"/></svg><svg x="924"><use xlink:href="#a"/><use xlink:href="#b" x="11.996"/><use xlink:href="#11"/></svg><svg x="1008"><use xlink:href="#a"/><use xlink:href="#b" x="12.996"/><use xlink:href="#11"/></svg><svg x="1092"><use xlink:href="#a"/><use xlink:href="#b" x="13.996"/><text y="1.67" class="f">$</text><text x="2.004" y="1.67" class="g">graphtrail</text><text x="13.026" y="1.67" class="g">i</text></svg><svg x="1176"><use xlink:href="#a"/><use xlink:href="#b" x="14.996"/><text y="1.67" class="f">$</text><text x="2.004" y="1.67" class="g">graphtrail</text><text x="13.026" y="1.67" class="g">in</text></svg><svg x="1260"><use xlink:href="#a"/><use xlink:href="#b" x="15.996"/><text y="1.67" class="f">$</text><text x="2.004" y="1.67" class="g">graphtrail</text><text x="13.026" y="1.67" class="g">ini</text></svg><svg x="1344"><use xlink:href="#a"/><use xlink:href="#b" x="16.996"/><use xlink:href="#12"/></svg><svg x="1428"><use xlink:href="#a"/><use xlink:href="#b" x="-.004" y="2.146"/><use xlink:href="#12"/></svg><svg x="1512"><use xlink:href="#a"/><use xlink:href="#b" x="-.004" y="4.317"/><use xlink:href="#12"/><use xlink:href="#13" y="2.171"/></svg><svg x="1596"><use xlink:href="#a"/><use xlink:href="#b" x="1.996" y="4.317"/><use xlink:href="#12"/><use xlink:href="#13" y="2.171"/><use xlink:href="#1" y="4.342"/></svg><svg x="1680"><use xlink:href="#a"/><use xlink:href="#b" x="2.996" y="4.317"/><use xlink:href="#12"/><use xlink:href="#13" y="2.171"/><use xlink:href="#2" y="4.342"/></svg><svg x="1764"><use xlink:href="#a"/><use xlink:href="#b" x="3.996" y="4.317"/><use xlink:href="#12"/><use xlink:href="#13" y="2.171"/><use xlink:href="#3" y="4.342"/></svg><svg x="1848"><use xlink:href="#a"/><use xlink:href="#b" x="4.996" y="4.317"/><use xlink:href="#12"/><use xlink:href="#13" y="2.171"/><use xlink:href="#4" y="4.342"/></svg><svg x="1932"><use xlink:href="#a"/><use xlink:href="#b" x="5.996" y="4.317"/><use xlink:href="#12"/><use xlink:href="#13" y="2.171"/><use xlink:href="#5" y="4.342"/></svg><svg x="2016"><use xlink:href="#a"/><use xlink:href="#b" x="6.996" y="4.317"/><use xlink:href="#12"/><use xlink:href="#13" y="2.171"/><use xlink:href="#6" y="4.342"/></svg><svg x="2100"><use xlink:href="#a"/><use xlink:href="#b" x="7.996" y="4.317"/><use xlink:href="#12"/><use xlink:href="#13" y="2.171"/><use xlink:href="#7" y="4.342"/></svg><svg x="2184"><use xlink:href="#a"/><use xlink:href="#b" x="8.996" y="4.317"/><use xlink:href="#12"/><use xlink:href="#13" y="2.171"/><use xlink:href="#8" y="4.342"/></svg><svg x="2268"><use xlink:href="#a"/><use xlink:href="#b" x="9.996" y="4.317"/><use xlink:href="#12"/><use xlink:href="#13" y="2.171"/><use xlink:href="#9" y="4.342"/></svg><svg x="2352"><use xlink:href="#a"/><use xlink:href="#b" x="10.996" y="4.317"/><use xlink:href="#12"/><use xlink:href="#13" y="2.171"/><use xlink:href="#10" y="4.342"/></svg><svg x="2436"><use xlink:href="#a"/><use xlink:href="#b" x="11.996" y="4.317"/><use xlink:href="#12"/><use xlink:href="#13" y="2.171"/><use xlink:href="#11" y="4.342"/></svg><svg x="2520"><use xlink:href="#a"/><use xlink:href="#b" x="12.996" y="4.317"/><use xlink:href="#12"/><use xlink:href="#13" y="2.171"/><use xlink:href="#11" y="4.342"/></svg><svg x="2604"><use xlink:href="#a"/><use xlink:href="#b" x="13.996" y="4.317"/><use xlink:href="#12"/><use xlink:href="#13" y="2.171"/><text y="6.012" class="f">$</text><text x="2.004" y="6.012" class="g">graphtrail</text><text x="13.026" y="6.012" class="g">s</text></svg><svg x="2688"><use xlink:href="#a"/><use xlink:href="#b" x="14.996" y="4.317"/><use xlink:href="#12"/><use xlink:href="#13" y="2.171"/><text y="6.012" class="f">$</text><text x="2.004" y="6.012" class="g">graphtrail</text><text x="13.026" y="6.012" class="g">sy</text></svg><svg x="2772"><use xlink:href="#a"/><use xlink:href="#b" x="15.996" y="4.317"/><use xlink:href="#12"/><use xlink:href="#13" y="2.171"/><text y="6.012" class="f">$</text><text x="2.004" y="6.012" class="g">graphtrail</text><text x="13.026" y="6.012" class="g">syn</text></svg><svg x="2856"><use xlink:href="#a"/><use xlink:href="#b" x="16.996" y="4.317"/><use xlink:href="#12"/><use xlink:href="#13" y="2.171"/><use xlink:href="#14" y="4.342"/></svg><svg x="2940"><use xlink:href="#a"/><use xlink:href="#b" x="-.004" y="6.488"/><use xlink:href="#12"/><use xlink:href="#13" y="2.171"/><use xlink:href="#14" y="4.342"/></svg><svg x="3024"><use xlink:href="#a"/><use xlink:href="#b" x="-.004" y="8.659"/><use xlink:href="#12"/><use xlink:href="#13" y="2.171"/><use xlink:href="#14" y="4.342"/><use xlink:href="#15" y="6.513"/></svg><svg x="3108"><use xlink:href="#a"/><use xlink:href="#b" x="1.996" y="8.659"/><use xlink:href="#12"/><use xlink:href="#13" y="2.171"/><use xlink:href="#14" y="4.342"/><use xlink:href="#15" y="6.513"/><use xlink:href="#1" y="8.684"/></svg><svg x="3192"><use xlink:href="#a"/><use xlink:href="#b" x="2.996" y="8.659"/><use xlink:href="#12"/><use xlink:href="#13" y="2.171"/><use xlink:href="#14" y="4.342"/><use xlink:href="#15" y="6.513"/><use xlink:href="#2" y="8.684"/></svg><svg x="3276"><use xlink:href="#a"/><use xlink:href="#b" x="3.996" y="8.659"/><use xlink:href="#12"/><use xlink:href="#13" y="2.171"/><use xlink:href="#14" y="4.342"/><use xlink:href="#15" y="6.513"/><use xlink:href="#3" y="8.684"/></svg><svg x="3360"><use xlink:href="#a"/><use xlink:href="#b" x="4.996" y="8.659"/><use xlink:href="#12"/><use xlink:href="#13" y="2.171"/><use xlink:href="#14" y="4.342"/><use xlink:href="#15" y="6.513"/><use xlink:href="#4" y="8.684"/></svg><svg x="3444"><use xlink:href="#a"/><use xlink:href="#b" x="5.996" y="8.659"/><use xlink:href="#12"/><use xlink:href="#13" y="2.171"/><use xlink:href="#14" y="4.342"/><use xlink:href="#15" y="6.513"/><use xlink:href="#5" y="8.684"/></svg><svg x="3528"><use xlink:href="#a"/><use xlink:href="#b" x="6.996" y="8.659"/><use xlink:href="#12"/><use xlink:href="#13" y="2.171"/><use xlink:href="#14" y="4.342"/><use xlink:href="#15" y="6.513"/><use xlink:href="#6" y="8.684"/></svg><svg x="3612"><use xlink:href="#a"/><use xlink:href="#b" x="7.996" y="8.659"/><use xlink:href="#12"/><use xlink:href="#13" y="2.171"/><use xlink:href="#14" y="4.342"/><use xlink:href="#15" y="6.513"/><use xlink:href="#7" y="8.684"/></svg><svg x="3696"><use xlink:href="#a"/><use xlink:href="#b" x="8.996" y="8.659"/><use xlink:href="#12"/><use xlink:href="#13" y="2.171"/><use xlink:href="#14" y="4.342"/><use xlink:href="#15" y="6.513"/><use xlink:href="#8" y="8.684"/></svg><svg x="3780"><use xlink:href="#a"/><use xlink:href="#b" x="9.996" y="8.659"/><use xlink:href="#12"/><use xlink:href="#13" y="2.171"/><use xlink:href="#14" y="4.342"/><use xlink:href="#15" y="6.513"/><use xlink:href="#9" y="8.684"/></svg><svg x="3864"><use xlink:href="#a"/><use xlink:href="#b" x="10.996" y="8.659"/><use xlink:href="#12"/><use xlink:href="#13" y="2.171"/><use xlink:href="#14" y="4.342"/><use xlink:href="#15" y="6.513"/><use xlink:href="#10" y="8.684"/></svg><svg x="3948"><use xlink:href="#a"/><use xlink:href="#b" x="11.996" y="8.659"/><use xlink:href="#12"/><use xlink:href="#13" y="2.171"/><use xlink:href="#14" y="4.342"/><use xlink:href="#15" y="6.513"/><use xlink:href="#11" y="8.684"/></svg><svg x="4032"><use xlink:href="#a"/><use xlink:href="#b" x="12.996" y="8.659"/><use xlink:href="#12"/><use xlink:href="#13" y="2.171"/><use xlink:href="#14" y="4.342"/><use xlink:href="#15" y="6.513"/><use xlink:href="#11" y="8.684"/></svg><svg x="4116"><use xlink:href="#a"/><use xlink:href="#b" x="13.996" y="8.659"/><use xlink:href="#12"/><use xlink:href="#13" y="2.171"/><use xlink:href="#14" y="4.342"/><use xlink:href="#15" y="6.513"/><use xlink:href="#16" y="8.684"/></svg><svg x="4200"><use xlink:href="#a"/><use xlink:href="#b" x="14.996" y="8.659"/><use xlink:href="#12"/><use xlink:href="#13" y="2.171"/><use xlink:href="#14" y="4.342"/><use xlink:href="#15" y="6.513"/><text y="10.354" class="f">$</text><text x="2.004" y="10.354" class="g">graphtrail</text><text x="13.026" y="10.354" class="g">ca</text></svg><svg x="4284"><use xlink:href="#a"/><use xlink:href="#b" x="15.996" y="8.659"/><use xlink:href="#12"/><use xlink:href="#13" y="2.171"/><use xlink:href="#14" y="4.342"/><use xlink:href="#15" y="6.513"/><text y="10.354" class="f">$</text><text x="2.004" y="10.354" class="g">graphtrail</text><text x="13.026" y="10.354" class="g">cal</text></svg><svg x="4368"><use xlink:href="#a"/><use xlink:href="#b" x="16.996" y="8.659"/><use xlink:href="#12"/><use xlink:href="#13" y="2.171"/><use xlink:href="#14" y="4.342"/><use xlink:href="#15" y="6.513"/><text y="10.354" class="f">$</text><text x="2.004" y="10.354" class="g">graphtrail</text><text x="13.026" y="10.354" class="g">call</text></svg><svg x="4452"><use xlink:href="#a"/><use xlink:href="#b" x="17.996" y="8.659"/><use xlink:href="#12"/><use xlink:href="#13" y="2.171"/><use xlink:href="#14" y="4.342"/><use xlink:href="#15" y="6.513"/><text y="10.354" class="f">$</text><text x="2.004" y="10.354" class="g">graphtrail</text><text x="13.026" y="10.354" class="g">calle</text></svg><svg x="4536"><use xlink:href="#a"/><use xlink:href="#b" x="18.996" y="8.659"/><use xlink:href="#12"/><use xlink:href="#13" y="2.171"/><use xlink:href="#14" y="4.342"/><use xlink:href="#15" y="6.513"/><text y="10.354" class="f">$</text><text x="2.004" y="10.354" class="g">graphtrail</text><text x="13.026" y="10.354" class="g">caller</text></svg><svg x="4620"><use xlink:href="#a"/><use xlink:href="#b" x="19.996" y="8.659"/><use xlink:href="#12"/><use xlink:href="#13" y="2.171"/><use xlink:href="#14" y="4.342"/><use xlink:href="#15" y="6.513"/><use xlink:href="#17" y="8.684"/></svg><svg x="4704"><use xlink:href="#a"/><use xlink:href="#b" x="20.996" y="8.659"/><use xlink:href="#12"/><use xlink:href="#13" y="2.171"/><use xlink:href="#14" y="4.342"/><use xlink:href="#15" y="6.513"/><use xlink:href="#17" y="8.684"/></svg><svg x="4788"><use xlink:href="#a"/><use xlink:href="#b" x="21.996" y="8.659"/><use xlink:href="#12"/><use xlink:href="#13" y="2.171"/><use xlink:href="#14" y="4.342"/><use xlink:href="#15" y="6.513"/><text y="10.354" class="f">$</text><text x="2.004" y="10.354" class="g">graphtrail</text><text x="13.026" y="10.354" class="g">callers</text><text x="21.042" y="10.354" class="g">s</text></svg><svg x="4872"><use xlink:href="#a"/><use xlink:href="#b" x="22.996" y="8.659"/><use xlink:href="#12"/><use xlink:href="#13" y="2.171"/><use xlink:href="#14" y="4.342"/><use xlink:href="#15" y="6.513"/><text y="10.354" class="f">$</text><text x="2.004" y="10.354" class="g">graphtrail</text><text x="13.026" y="10.354" class="g">callers</text><text x="21.042" y="10.354" class="g">su</text></svg><svg x="4956"><use xlink:href="#a"/><use xlink:href="#b" x="23.996" y="8.659"/><use xlink:href="#12"/><use xlink:href="#13" y="2.171"/><use xlink:href="#14" y="4.342"/><use xlink:href="#15" y="6.513"/><text y="10.354" class="f">$</text><text x="2.004" y="10.354" class="g">graphtrail</text><text x="13.026" y="10.354" class="g">callers</text><text x="21.042" y="10.354" class="g">sum</text></svg><svg x="5040"><use xlink:href="#a"/><use xlink:href="#b" x="24.996" y="8.659"/><use xlink:href="#12"/><use xlink:href="#13" y="2.171"/><use xlink:href="#14" y="4.342"/><use xlink:href="#15" y="6.513"/><text y="10.354" class="f">$</text><text x="2.004" y="10.354" class="g">graphtrail</text><text x="13.026" y="10.354" class="g">callers</text><text x="21.042" y="10.354" class="g">summ</text></svg><svg x="5124"><use xlink:href="#a"/><use xlink:href="#b" x="25.996" y="8.659"/><use xlink:href="#12"/><use xlink:href="#13" y="2.171"/><use xlink:href="#14" y="4.342"/><use xlink:href="#15" y="6.513"/><text y="10.354" class="f">$</text><text x="2.004" y="10.354" class="g">graphtrail</text><text x="13.026" y="10.354" class="g">callers</text><text x="21.042" y="10.354" class="g">summa</text></svg><svg x="5208"><use xlink:href="#a"/><use xlink:href="#b" x="26.996" y="8.659"/><use xlink:href="#12"/><use xlink:href="#13" y="2.171"/><use xlink:href="#14" y="4.342"/><use xlink:href="#15" y="6.513"/><text y="10.354" class="f">$</text><text x="2.004" y="10.354" class="g">graphtrail</text><text x="13.026" y="10.354" class="g">callers</text><text x="21.042" y="10.354" class="g">summar</text></svg><svg x="5292"><use xlink:href="#a"/><use xlink:href="#b" x="27.996" y="8.659"/><use xlink:href="#12"/><use xlink:href="#13" y="2.171"/><use xlink:href="#14" y="4.342"/><use xlink:href="#15" y="6.513"/><text y="10.354" class="f">$</text><text x="2.004" y="10.354" class="g">graphtrail</text><text x="13.026" y="10.354" class="g">callers</text><text x="21.042" y="10.354" class="g">summari</text></svg><svg x="5376"><use xlink:href="#a"/><use xlink:href="#b" x="28.996" y="8.659"/><use xlink:href="#12"/><use xlink:href="#13" y="2.171"/><use xlink:href="#14" y="4.342"/><use xlink:href="#15" y="6.513"/><text y="10.354" class="f">$</text><text x="2.004" y="10.354" class="g">graphtrail</text><text x="13.026" y="10.354" class="g">callers</text><text x="21.042" y="10.354" class="g">summariz</text></svg><svg x="5460"><use xlink:href="#a"/><use xlink:href="#b" x="29.996" y="8.659"/><use xlink:href="#12"/><use xlink:href="#13" y="2.171"/><use xlink:href="#14" y="4.342"/><use xlink:href="#15" y="6.513"/><use xlink:href="#18" y="8.684"/></svg><svg x="5544"><use xlink:href="#a"/><use xlink:href="#b" x="-.004" y="10.83"/><use xlink:href="#12"/><use xlink:href="#13" y="2.171"/><use xlink:href="#14" y="4.342"/><use xlink:href="#15" y="6.513"/><use xlink:href="#18" y="8.684"/></svg><svg x="5628"><use xlink:href="#a"/><use xlink:href="#b" x="-.004" y="13.001"/><use xlink:href="#12"/><use xlink:href="#13" y="2.171"/><use xlink:href="#14" y="4.342"/><use xlink:href="#15" y="6.513"/><use xlink:href="#18" y="8.684"/><use xlink:href="#19" y="10.855"/></svg><svg x="5712"><use xlink:href="#a"/><use xlink:href="#b" x="1.996" y="13.001"/><use xlink:href="#12"/><use xlink:href="#13" y="2.171"/><use xlink:href="#14" y="4.342"/><use xlink:href="#15" y="6.513"/><use xlink:href="#18" y="8.684"/><use xlink:href="#19" y="10.855"/><use xlink:href="#1" y="13.026"/></svg><svg x="5796"><use xlink:href="#a"/><use xlink:href="#b" x="2.996" y="13.001"/><use xlink:href="#12"/><use xlink:href="#13" y="2.171"/><use xlink:href="#14" y="4.342"/><use xlink:href="#15" y="6.513"/><use xlink:href="#18" y="8.684"/><use xlink:href="#19" y="10.855"/><use xlink:href="#2" y="13.026"/></svg><svg x="5880"><use xlink:href="#a"/><use xlink:href="#b" x="3.996" y="13.001"/><use xlink:href="#12"/><use xlink:href="#13" y="2.171"/><use xlink:href="#14" y="4.342"/><use xlink:href="#15" y="6.513"/><use xlink:href="#18" y="8.684"/><use xlink:href="#19" y="10.855"/><use xlink:href="#3" y="13.026"/></svg><svg x="5964"><use xlink:href="#a"/><use xlink:href="#b" x="4.996" y="13.001"/><use xlink:href="#12"/><use xlink:href="#13" y="2.171"/><use xlink:href="#14" y="4.342"/><use xlink:href="#15" y="6.513"/><use xlink:href="#18" y="8.684"/><use xlink:href="#19" y="10.855"/><use xlink:href="#4" y="13.026"/></svg><svg x="6048"><use xlink:href="#a"/><use xlink:href="#b" x="5.996" y="13.001"/><use xlink:href="#12"/><use xlink:href="#13" y="2.171"/><use xlink:href="#14" y="4.342"/><use xlink:href="#15" y="6.513"/><use xlink:href="#18" y="8.684"/><use xlink:href="#19" y="10.855"/><use xlink:href="#5" y="13.026"/></svg><svg x="6132"><use xlink:href="#a"/><use xlink:href="#b" x="6.996" y="13.001"/><use xlink:href="#12"/><use xlink:href="#13" y="2.171"/><use xlink:href="#14" y="4.342"/><use xlink:href="#15" y="6.513"/><use xlink:href="#18" y="8.684"/><use xlink:href="#19" y="10.855"/><use xlink:href="#6" y="13.026"/></svg><svg x="6216"><use xlink:href="#a"/><use xlink:href="#b" x="7.996" y="13.001"/><use xlink:href="#12"/><use xlink:href="#13" y="2.171"/><use xlink:href="#14" y="4.342"/><use xlink:href="#15" y="6.513"/><use xlink:href="#18" y="8.684"/><use xlink:href="#19" y="10.855"/><use xlink:href="#7" y="13.026"/></svg><svg x="6300"><use xlink:href="#a"/><use xlink:href="#b" x="8.996" y="13.001"/><use xlink:href="#12"/><use xlink:href="#13" y="2.171"/><use xlink:href="#14" y="4.342"/><use xlink:href="#15" y="6.513"/><use xlink:href="#18" y="8.684"/><use xlink:href="#19" y="10.855"/><use xlink:href="#8" y="13.026"/></svg><svg x="6384"><use xlink:href="#a"/><use xlink:href="#b" x="9.996" y="13.001"/><use xlink:href="#12"/><use xlink:href="#13" y="2.171"/><use xlink:href="#14" y="4.342"/><use xlink:href="#15" y="6.513"/><use xlink:href="#18" y="8.684"/><use xlink:href="#19" y="10.855"/><use xlink:href="#9" y="13.026"/></svg><svg x="6468"><use xlink:href="#a"/><use xlink:href="#b" x="10.996" y="13.001"/><use xlink:href="#12"/><use xlink:href="#13" y="2.171"/><use xlink:href="#14" y="4.342"/><use xlink:href="#15" y="6.513"/><use xlink:href="#18" y="8.684"/><use xlink:href="#19" y="10.855"/><use xlink:href="#10" y="13.026"/></svg><svg x="6552"><use xlink:href="#a"/><use xlink:href="#b" x="11.996" y="13.001"/><use xlink:href="#12"/><use xlink:href="#13" y="2.171"/><use xlink:href="#14" y="4.342"/><use xlink:href="#15" y="6.513"/><use xlink:href="#18" y="8.684"/><use xlink:href="#19" y="10.855"/><use xlink:href="#11" y="13.026"/></svg><svg x="6636"><use xlink:href="#a"/><use xlink:href="#b" x="12.996" y="13.001"/><use xlink:href="#12"/><use xlink:href="#13" y="2.171"/><use xlink:href="#14" y="4.342"/><use xlink:href="#15" y="6.513"/><use xlink:href="#18" y="8.684"/><use xlink:href="#19" y="10.855"/><use xlink:href="#11" y="13.026"/></svg><svg x="6720"><use xlink:href="#a"/><use xlink:href="#b" x="13.996" y="13.001"/><use xlink:href="#12"/><use xlink:href="#13" y="2.171"/><use xlink:href="#14" y="4.342"/><use xlink:href="#15" y="6.513"/><use xlink:href="#18" y="8.684"/><use xlink:href="#19" y="10.855"/><use xlink:href="#16" y="13.026"/></svg><svg x="6804"><use xlink:href="#a"/><use xlink:href="#b" x="14.996" y="13.001"/><use xlink:href="#12"/><use xlink:href="#13" y="2.171"/><use xlink:href="#14" y="4.342"/><use xlink:href="#15" y="6.513"/><use xlink:href="#18" y="8.684"/><use xlink:href="#19" y="10.855"/><text y="14.696" class="f">$</text><text x="2.004" y="14.696" class="g">graphtrail</text><text x="13.026" y="14.696" class="g">co</text></svg><svg x="6888"><use xlink:href="#a"/><use xlink:href="#b" x="15.996" y="13.001"/><use xlink:href="#12"/><use xlink:href="#13" y="2.171"/><use xlink:href="#14" y="4.342"/><use xlink:href="#15" y="6.513"/><use xlink:href="#18" y="8.684"/><use xlink:href="#19" y="10.855"/><text y="14.696" class="f">$</text><text x="2.004" y="14.696" class="g">graphtrail</text><text x="13.026" y="14.696" class="g">con</text></svg><svg x="6972"><use xlink:href="#a"/><use xlink:href="#b" x="16.996" y="13.001"/><use xlink:href="#12"/><use xlink:href="#13" y="2.171"/><use xlink:href="#14" y="4.342"/><use xlink:href="#15" y="6.513"/><use xlink:href="#18" y="8.684"/><use xlink:href="#19" y="10.855"/><text y="14.696" class="f">$</text><text x="2.004" y="14.696" class="g">graphtrail</text><text x="13.026" y="14.696" class="g">cont</text></svg><svg x="7056"><use xlink:href="#a"/><use xlink:href="#b" x="17.996" y="13.001"/><use xlink:href="#12"/><use xlink:href="#13" y="2.171"/><use xlink:href="#14" y="4.342"/><use xlink:href="#15" y="6.513"/><use xlink:href="#18" y="8.684"/><use xlink:href="#19" y="10.855"/><text y="14.696" class="f">$</text><text x="2.004" y="14.696" class="g">graphtrail</text><text x="13.026" y="14.696" class="g">conte</text></svg><svg x="7140"><use xlink:href="#a"/><use xlink:href="#b" x="18.996" y="13.001"/><use xlink:href="#12"/><use xlink:href="#13" y="2.171"/><use xlink:href="#14" y="4.342"/><use xlink:href="#15" y="6.513"/><use xlink:href="#18" y="8.684"/><use xlink:href="#19" y="10.855"/><text y="14.696" class="f">$</text><text x="2.004" y="14.696" class="g">graphtrail</text><text x="13.026" y="14.696" class="g">contex</text></svg><svg x="7224"><use xlink:href="#a"/><use xlink:href="#b" x="19.996" y="13.001"/><use xlink:href="#12"/><use xlink:href="#13" y="2.171"/><use xlink:href="#14" y="4.342"/><use xlink:href="#15" y="6.513"/><use xlink:href="#18" y="8.684"/><use xlink:href="#19" y="10.855"/><use xlink:href="#20" y="13.026"/></svg><svg x="7308"><use xlink:href="#a"/><use xlink:href="#b" x="20.996" y="13.001"/><use xlink:href="#12"/><use xlink:href="#13" y="2.171"/><use xlink:href="#14" y="4.342"/><use xlink:href="#15" y="6.513"/><use xlink:href="#18" y="8.684"/><use xlink:href="#19" y="10.855"/><use xlink:href="#20" y="13.026"/></svg><svg x="7392"><use xlink:href="#a"/><use xlink:href="#b" x="21.996" y="13.001"/><use xlink:href="#12"/><use xlink:href="#13" y="2.171"/><use xlink:href="#14" y="4.342"/><use xlink:href="#15" y="6.513"/><use xlink:href="#18" y="8.684"/><use xlink:href="#19" y="10.855"/><text y="14.696" class="f">$</text><text x="2.004" y="14.696" class="g">graphtrail</text><text x="13.026" y="14.696" class="g">context</text><text x="21.042" y="14.696" class="g">b</text></svg><svg x="7476"><use xlink:href="#a"/><use xlink:href="#b" x="22.996" y="13.001"/><use xlink:href="#12"/><use xlink:href="#13" y="2.171"/><use xlink:href="#14" y="4.342"/><use xlink:href="#15" y="6.513"/><use xlink:href="#18" y="8.684"/><use xlink:href="#19" y="10.855"/><text y="14.696" class="f">$</text><text x="2.004" y="14.696" class="g">graphtrail</text><text x="13.026" y="14.696" class="g">context</text><text x="21.042" y="14.696" class="g">bu</text></svg><svg x="7560"><use xlink:href="#a"/><use xlink:href="#b" x="23.996" y="13.001"/><use xlink:href="#12"/><use xlink:href="#13" y="2.171"/><use xlink:href="#14" y="4.342"/><use xlink:href="#15" y="6.513"/><use xlink:href="#18" y="8.684"/><use xlink:href="#19" y="10.855"/><text y="14.696" class="f">$</text><text x="2.004" y="14.696" class="g">graphtrail</text><text x="13.026" y="14.696" class="g">context</text><text x="21.042" y="14.696" class="g">bui</text></svg><svg x="7644"><use xlink:href="#a"/><use xlink:href="#b" x="24.996" y="13.001"/><use xlink:href="#12"/><use xlink:href="#13" y="2.171"/><use xlink:href="#14" y="4.342"/><use xlink:href="#15" y="6.513"/><use xlink:href="#18" y="8.684"/><use xlink:href="#19" y="10.855"/><text y="14.696" class="f">$</text><text x="2.004" y="14.696" class="g">graphtrail</text><text x="13.026" y="14.696" class="g">context</text><text x="21.042" y="14.696" class="g">buil</text></svg><svg x="7728"><use xlink:href="#a"/><use xlink:href="#b" x="25.996" y="13.001"/><use xlink:href="#12"/><use xlink:href="#13" y="2.171"/><use xlink:href="#14" y="4.342"/><use xlink:href="#15" y="6.513"/><use xlink:href="#18" y="8.684"/><use xlink:href="#19" y="10.855"/><text y="14.696" class="f">$</text><text x="2.004" y="14.696" class="g">graphtrail</text><text x="13.026" y="14.696" class="g">context</text><text x="21.042" y="14.696" class="g">build</text></svg><svg x="7812"><use xlink:href="#a"/><use xlink:href="#b" x="26.996" y="13.001"/><use xlink:href="#12"/><use xlink:href="#13" y="2.171"/><use xlink:href="#14" y="4.342"/><use xlink:href="#15" y="6.513"/><use xlink:href="#18" y="8.684"/><use xlink:href="#19" y="10.855"/><text y="14.696" class="f">$</text><text x="2.004" y="14.696" class="g">graphtrail</text><text x="13.026" y="14.696" class="g">context</text><text x="21.042" y="14.696" class="g">build_</text></svg><svg x="7896"><use xlink:href="#a"/><use xlink:href="#b" x="27.996" y="13.001"/><use xlink:href="#12"/><use xlink:href="#13" y="2.171"/><use xlink:href="#14" y="4.342"/><use xlink:href="#15" y="6.513"/><use xlink:href="#18" y="8.684"/><use xlink:href="#19" y="10.855"/><text y="14.696" class="f">$</text><text x="2.004" y="14.696" class="g">graphtrail</text><text x="13.026" y="14.696" class="g">context</text><text x="21.042" y="14.696" class="g">build_r</text></svg><svg x="7980"><use xlink:href="#a"/><use xlink:href="#b" x="28.996" y="13.001"/><use xlink:href="#12"/><use xlink:href="#13" y="2.171"/><use xlink:href="#14" y="4.342"/><use xlink:href="#15" y="6.513"/><use xlink:href="#18" y="8.684"/><use xlink:href="#19" y="10.855"/><text y="14.696" class="f">$</text><text x="2.004" y="14.696" class="g">graphtrail</text><text x="13.026" y="14.696" class="g">context</text><text x="21.042" y="14.696" class="g">build_re</text></svg><svg x="8064"><use xlink:href="#a"/><use xlink:href="#b" x="29.996" y="13.001"/><use xlink:href="#12"/><use xlink:href="#13" y="2.171"/><use xlink:href="#14" y="4.342"/><use xlink:href="#15" y="6.513"/><use xlink:href="#18" y="8.684"/><use xlink:href="#19" y="10.855"/><text y="14.696" class="f">$</text><text x="2.004" y="14.696" class="g">graphtrail</text><text x="13.026" y="14.696" class="g">context</text><text x="21.042" y="14.696" class="g">build_rep</text></svg><svg x="8148"><use xlink:href="#a"/><use xlink:href="#b" x="30.996" y="13.001"/><use xlink:href="#12"/><use xlink:href="#13" y="2.171"/><use xlink:href="#14" y="4.342"/><use xlink:href="#15" y="6.513"/><use xlink:href="#18" y="8.684"/><use xlink:href="#19" y="10.855"/><text y="14.696" class="f">$</text><text x="2.004" y="14.696" class="g">graphtrail</text><text x="13.026" y="14.696" class="g">context</text><text x="21.042" y="14.696" class="g">build_repo</text></svg><svg x="8232"><use xlink:href="#a"/><use xlink:href="#b" x="31.996" y="13.001"/><use xlink:href="#12"/><use xlink:href="#13" y="2.171"/><use xlink:href="#14" y="4.342"/><use xlink:href="#15" y="6.513"/><use xlink:href="#18" y="8.684"/><use xlink:href="#19" y="10.855"/><text y="14.696" class="f">$</text><text x="2.004" y="14.696" class="g">graphtrail</text><text x="13.026" y="14.696" class="g">context</text><text x="21.042" y="14.696" class="g">build_repor</text></svg><svg x="8316"><use xlink:href="#a"/><use xlink:href="#b" x="32.996" y="13.001"/><use xlink:href="#12"/><use xlink:href="#13" y="2.171"/><use xlink:href="#14" y="4.342"/><use xlink:href="#15" y="6.513"/><use xlink:href="#18" y="8.684"/><use xlink:href="#19" y="10.855"/><use xlink:href="#21" y="13.026"/></svg><svg x="8400"><use xlink:href="#a"/><use xlink:href="#b" x="-.004" y="15.172"/><use xlink:href="#12"/><use xlink:href="#13" y="2.171"/><use xlink:href="#14" y="4.342"/><use xlink:href="#15" y="6.513"/><use xlink:href="#18" y="8.684"/><use xlink:href="#19" y="10.855"/><use xlink:href="#21" y="13.026"/></svg><svg x="8484"><use xlink:href="#a"/><use xlink:href="#b" x="-.004" y="17.343"/><use xlink:href="#12"/><use xlink:href="#13" y="2.171"/><use xlink:href="#14" y="4.342"/><use xlink:href="#15" y="6.513"/><use xlink:href="#18" y="8.684"/><use xlink:href="#19" y="10.855"/><use xlink:href="#21" y="13.026"/><use xlink:href="#22" y="15.197"/></svg><svg x="8568"><use xlink:href="#a"/><use xlink:href="#b" x="-.004" y="19.514"/><use xlink:href="#12"/><use xlink:href="#13" y="2.171"/><use xlink:href="#14" y="4.342"/><use xlink:href="#15" y="6.513"/><use xlink:href="#18" y="8.684"/><use xlink:href="#19" y="10.855"/><use xlink:href="#21" y="13.026"/><use xlink:href="#22" y="15.197"/></svg><svg x="8652"><use xlink:href="#a"/><use xlink:href="#b" x="-.004" y="21.685"/><use xlink:href="#12"/><use xlink:href="#13" y="2.171"/><use xlink:href="#14" y="4.342"/><use xlink:href="#15" y="6.513"/><use xlink:href="#18" y="8.684"/><use xlink:href="#19" y="10.855"/><use xlink:href="#21" y="13.026"/><use xlink:href="#22" y="15.197"/><use xlink:href="#23" y="19.539"/></svg><svg x="8736"><use xlink:href="#a"/><use xlink:href="#b" x="-.004" y="23.856"/><use xlink:href="#12"/><use xlink:href="#13" y="2.171"/><use xlink:href="#14" y="4.342"/><use xlink:href="#15" y="6.513"/><use xlink:href="#18" y="8.684"/><use xlink:href="#19" y="10.855"/><use xlink:href="#21" y="13.026"/><use xlink:href="#22" y="15.197"/><use xlink:href="#23" y="19.539"/></svg><svg x="8820"><use xlink:href="#a"/><use xlink:href="#b" x="-.004" y="26.027"/><use xlink:href="#12"/><use xlink:href="#13" y="2.171"/><use xlink:href="#14" y="4.342"/><use xlink:href="#15" y="6.513"/><use xlink:href="#18" y="8.684"/><use xlink:href="#19" y="10.855"/><use xlink:href="#21" y="13.026"/><use xlink:href="#22" y="15.197"/><use xlink:href="#23" y="19.539"/><use xlink:href="#24" y="23.881"/></svg><svg x="8904"><use xlink:href="#a"/><use xlink:href="#b" x="-.004" y="28.198"/><use xlink:href="#12"/><use xlink:href="#13" y="2.171"/><use xlink:href="#14" y="4.342"/><use xlink:href="#15" y="6.513"/><use xlink:href="#18" y="8.684"/><use xlink:href="#19" y="10.855"/><use xlink:href="#21" y="13.026"/><use xlink:href="#22" y="15.197"/><use xlink:href="#23" y="19.539"/><use xlink:href="#24" y="23.881"/><use xlink:href="#25" y="26.052"/></svg><svg x="8988"><use xlink:href="#a"/><use xlink:href="#b" x="-.004" y="30.369"/><use xlink:href="#12"/><use xlink:href="#13" y="2.171"/><use xlink:href="#14" y="4.342"/><use xlink:href="#15" y="6.513"/><use xlink:href="#18" y="8.684"/><use xlink:href="#19" y="10.855"/><use xlink:href="#21" y="13.026"/><use xlink:href="#22" y="15.197"/><use xlink:href="#23" y="19.539"/><use xlink:href="#24" y="23.881"/><use xlink:href="#25" y="26.052"/></svg><svg x="9072"><use xlink:href="#a"/><use xlink:href="#b" x="-.004" y="32.54"/><use xlink:href="#12"/><use xlink:href="#13" y="2.171"/><use xlink:href="#14" y="4.342"/><use xlink:href="#15" y="6.513"/><use xlink:href="#18" y="8.684"/><use xlink:href="#19" y="10.855"/><use xlink:href="#21" y="13.026"/><use xlink:href="#22" y="15.197"/><use xlink:href="#23" y="19.539"/><use xlink:href="#24" y="23.881"/><use xlink:href="#25" y="26.052"/><use xlink:href="#26" y="30.394"/></svg><svg x="9156"><use xlink:href="#a"/><use xlink:href="#b" x="-.004" y="34.711"/><use xlink:href="#12"/><use xlink:href="#13" y="2.171"/><use xlink:href="#14" y="4.342"/><use xlink:href="#15" y="6.513"/><use xlink:href="#18" y="8.684"/><use xlink:href="#19" y="10.855"/><use xlink:href="#21" y="13.026"/><use xlink:href="#22" y="15.197"/><use xlink:href="#23" y="19.539"/><use xlink:href="#24" y="23.881"/><use xlink:href="#25" y="26.052"/><use xlink:href="#26" y="30.394"/><use xlink:href="#27" y="32.565"/></svg><svg x="9240"><use xlink:href="#a"/><use xlink:href="#b" x="-.004" y="36.882"/><use xlink:href="#12"/><use xlink:href="#13" y="2.171"/><use xlink:href="#14" y="4.342"/><use xlink:href="#15" y="6.513"/><use xlink:href="#18" y="8.684"/><use xlink:href="#19" y="10.855"/><use xlink:href="#21" y="13.026"/><use xlink:href="#22" y="15.197"/><use xlink:href="#23" y="19.539"/><use xlink:href="#24" y="23.881"/><use xlink:href="#25" y="26.052"/><use xlink:href="#26" y="30.394"/><use xlink:href="#27" y="32.565"/></svg><svg x="9324"><use xlink:href="#a"/><use xlink:href="#b" x="-.004" y="39.053"/><use xlink:href="#12"/><use xlink:href="#13" y="2.171"/><use xlink:href="#14" y="4.342"/><use xlink:href="#15" y="6.513"/><use xlink:href="#18" y="8.684"/><use xlink:href="#19" y="10.855"/><use xlink:href="#21" y="13.026"/><use xlink:href="#22" y="15.197"/><use xlink:href="#23" y="19.539"/><use xlink:href="#24" y="23.881"/><use xlink:href="#25" y="26.052"/><use xlink:href="#26" y="30.394"/><use xlink:href="#27" y="32.565"/><use xlink:href="#28" y="36.907"/></svg><svg x="9408"><use xlink:href="#a"/><use xlink:href="#b" x="-.004" y="41.224"/><use xlink:href="#12"/><use xlink:href="#13" y="2.171"/><use xlink:href="#14" y="4.342"/><use xlink:href="#15" y="6.513"/><use xlink:href="#18" y="8.684"/><use xlink:href="#19" y="10.855"/><use xlink:href="#21" y="13.026"/><use xlink:href="#22" y="15.197"/><use xlink:href="#23" y="19.539"/><use xlink:href="#24" y="23.881"/><use xlink:href="#25" y="26.052"/><use xlink:href="#26" y="30.394"/><use xlink:href="#27" y="32.565"/><use xlink:href="#28" y="36.907"/><use xlink:href="#29" y="39.078"/></svg><svg x="9492"><use xlink:href="#a"/><use xlink:href="#b" x="-.004" y="43.395"/><use xlink:href="#12"/><use xlink:href="#13" y="2.171"/><use xlink:href="#14" y="4.342"/><use xlink:href="#15" y="6.513"/><use xlink:href="#18" y="8.684"/><use xlink:href="#19" y="10.855"/><use xlink:href="#21" y="13.026"/><use xlink:href="#22" y="15.197"/><use xlink:href="#23" y="19.539"/><use xlink:href="#24" y="23.881"/><use xlink:href="#25" y="26.052"/><use xlink:href="#26" y="30.394"/><use xlink:href="#27" y="32.565"/><use xlink:href="#28" y="36.907"/><use xlink:href="#29" y="39.078"/></svg><svg x="9576"><use xlink:href="#a"/><use xlink:href="#b" x="-.004" y="45.566"/><use xlink:href="#12"/><use xlink:href="#13" y="2.171"/><use xlink:href="#14" y="4.342"/><use xlink:href="#15" y="6.513"/><use xlink:href="#18" y="8.684"/><use xlink:href="#19" y="10.855"/><use xlink:href="#21" y="13.026"/><use xlink:href="#22" y="15.197"/><use xlink:href="#23" y="19.539"/><use xlink:href="#24" y="23.881"/><use xlink:href="#25" y="26.052"/><use xlink:href="#26" y="30.394"/><use xlink:href="#27" y="32.565"/><use xlink:href="#28" y="36.907"/><use xlink:href="#29" y="39.078"/><use xlink:href="#30" y="43.42"/></svg><svg x="9660"><use xlink:href="#a"/><use xlink:href="#b" x="-.004" y="47.737"/><use xlink:href="#12"/><use xlink:href="#13" y="2.171"/><use xlink:href="#14" y="4.342"/><use xlink:href="#15" y="6.513"/><use xlink:href="#18" y="8.684"/><use xlink:href="#19" y="10.855"/><use xlink:href="#21" y="13.026"/><use xlink:href="#22" y="15.197"/><use xlink:href="#23" y="19.539"/><use xlink:href="#24" y="23.881"/><use xlink:href="#25" y="26.052"/><use xlink:href="#26" y="30.394"/><use xlink:href="#27" y="32.565"/><use xlink:href="#28" y="36.907"/><use xlink:href="#29" y="39.078"/><use xlink:href="#30" y="43.42"/><use xlink:href="#31" y="45.591"/></svg><svg x="9744"><use xlink:href="#a"/><use xlink:href="#b" x="-.004" y="47.737"/><use xlink:href="#12"/><use xlink:href="#13" y="2.171"/><use xlink:href="#14" y="4.342"/><use xlink:href="#15" y="6.513"/><use xlink:href="#18" y="8.684"/><use xlink:href="#19" y="10.855"/><use xlink:href="#21" y="13.026"/><use xlink:href="#22" y="15.197"/><use xlink:href="#23" y="19.539"/><use xlink:href="#24" y="23.881"/><use xlink:href="#25" y="26.052"/><use xlink:href="#26" y="30.394"/><use xlink:href="#27" y="32.565"/><use xlink:href="#28" y="36.907"/><use xlink:href="#29" y="39.078"/><use xlink:href="#30" y="43.42"/><use xlink:href="#31" y="45.591"/></svg></svg></g></g></svg></svg>