<svg xmlns="http://www.w3.org/2000/svg" xmlns:xlink="http://www.w3.org/1999/xlink" width="848" height="565.62"><rect width="848" height="565.62" rx="5" ry="5" class="a"/><svg y="0%" x="0%"><circle cx="20" cy="20" r="6" fill="#ff5f58"/><circle cx="40" cy="20" r="6" fill="#ffbd2e"/><circle cx="60" cy="20" r="6" fill="#18c132"/></svg><svg height="477.62" viewBox="0 0 78 47.762" width="780" x="29" xmlns="http://www.w3.org/2000/svg" xmlns:xlink="http://www.w3.org/1999/xlink" y="64"><style>@keyframes j{0%{transform:translateX(0)}6.6%{transform:translateX(-78px)}7%{transform:translateX(-156px)}7.4%{transform:translateX(-234px)}7.9%{transform:translateX(-312px)}8.3%{transform:translateX(-390px)}8.8%{transform:translateX(-468px)}9.2%{transform:translateX(-546px)}9.6%{transform:translateX(-624px)}10.1%{transform:translateX(-702px)}10.5%{transform:translateX(-780px)}10.9%{transform:translateX(-858px)}11.4%{transform:translateX(-936px)}11.8%{transform:translateX(-1014px)}12.3%{transform:translateX(-1092px)}12.7%{transform:translateX(-1170px)}13.1%{transform:translateX(-1248px)}13.6%{transform:translateX(-1326px)}14%{transform:translateX(-1404px)}14.4%{transform:translateX(-1482px)}14.9%{transform:translateX(-1560px)}15.3%{transform:translateX(-1638px)}20.2%{transform:translateX(-1716px)}23.5%{transform:translateX(-1794px)}24.2%{transform:translateX(-1872px)}24.8%{transform:translateX(-1950px)}25.5%{transform:translateX(-2028px)}26.1%{transform:translateX(-2106px)}26.8%{transform:translateX(-2184px)}27.5%{transform:translateX(-2262px)}28.1%{transform:translateX(-2340px)}28.8%{transform:translateX(-2418px)}46.3%{transform:translateX(-2496px)}46.7%{transform:translateX(-2574px)}47.2%{transform:translateX(-2652px)}47.6%{transform:translateX(-2730px)}48%{transform:translateX(-2808px)}48.5%{transform:translateX(-2886px)}48.9%{transform:translateX(-2964px)}49.3%{transform:translateX(-3042px)}49.8%{transform:translateX(-3120px)}50.2%{transform:translateX(-3198px)}50.7%{transform:translateX(-3276px)}51.1%{transform:translateX(-3354px)}51.5%{transform:translateX(-3432px)}52%{transform:translateX(-3510px)}52.4%{transform:translateX(-3588px)}52.8%{transform:translateX(-3666px)}53.3%{transform:translateX(-3744px)}53.7%{transform:translateX(-3822px)}54.2%{transform:translateX(-3900px)}59.1%{transform:translateX(-3978px)}62.4%{transform:translateX(-4056px)}63%{transform:translateX(-4134px)}63.7%{transform:translateX(-4212px)}64.3%{transform:translateX(-4290px)}65%{transform:translateX(-4368px)}to{transform:translateX(-4446px)}}.a{fill:#282d35}.f,.g{white-space:pre}.f{fill:#a8cc8c;font-weight:700}.g{fill:#b9c0cb}</style><g font-family="Monaco,Consolas,Menlo,'Bitstream Vera Sans Mono','Powerline Symbols',monospace" font-size="1.67"><defs><symbol id="1"><text y="1.67" class="f">$</text></symbol><symbol id="2"><text y="1.67" class="f">$</text><text x="2.004" y="1.67" class="g">m</text></symbol><symbol id="3"><text y="1.67" class="f">$</text><text x="2.004" y="1.67" class="g">me</text></symbol><symbol id="4"><text y="1.67" class="f">$</text><text x="2.004" y="1.67" class="g">mem</text></symbol><symbol id="5"><text y="1.67" class="f">$</text><text x="2.004" y="1.67" class="g">memo</text></symbol><symbol id="6"><text y="1.67" class="f">$</text><text x="2.004" y="1.67" class="g">memor</text></symbol><symbol id="7"><text y="1.67" class="f">$</text><text x="2.004" y="1.67" class="g">memory</text></symbol><symbol id="8"><text y="1.67" class="f">$</text><text x="2.004" y="1.67" class="g">memory-</text></symbol><symbol id="9"><text y="1.67" class="f">$</text><text x="2.004" y="1.67" class="g">memory-d</text></symbol><symbol id="10"><text y="1.67" class="f">$</text><text x="2.004" y="1.67" class="g">memory-do</text></symbol><symbol id="11"><text y="1.67" class="f">$</text><text x="2.004" y="1.67" class="g">memory-doc</text></symbol><symbol id="12"><text y="1.67" class="f">$</text><text x="2.004" y="1.67" class="g">memory-doct</text></symbol><symbol id="13"><text y="1.67" class="f">$</text><text x="2.004" y="1.67" class="g">memory-docto</text></symbol><symbol id="14"><text y="1.67" class="f">$</text><text x="2.004" y="1.67" class="g">memory-doctor</text></symbol><symbol id="15"><text y="1.67" class="f">$</text><text x="2.004" y="1.67" class="g">memory-doctor</text><text x="16.032" y="1.67" class="g">status</text></symbol><symbol id="16"><text y="1.67" class="g">memory</text><text x="7.014" y="1.67" class="g">dir:</text><text x="18.036" y="1.67" class="g">~/.claude/memory</text></symbol><symbol id="17"><text x="2.004" y="1.67" class="g">cards:</text><text x="18.036" y="1.67" class="g">2</text></symbol><symbol id="18"><text x="2.004" y="1.67" class="g">MEMORY.md:</text><text x="18.036" y="1.67" class="g">5</text><text x="20.04" y="1.67" class="g">lines,</text><text x="27.054" y="1.67" class="g">172</text><text x="31.062" y="1.67" class="g">bytes</text></symbol><symbol id="19"><text x="2.004" y="1.67" class="g">threshold:</text><text x="18.036" y="1.67" class="g">180</text><text x="22.044" y="1.67" class="g">(ok)</text></symbol><symbol id="20"><text x="2.004" y="1.67" class="g">dead</text><text x="7.014" y="1.67" class="g">links:</text><text x="18.036" y="1.67" class="g">1</text></symbol><symbol id="21"><text y="1.67" class="g">handoffs</text><text x="9.018" y="1.67" class="g">dir:</text><text x="18.036" y="1.67" class="g">~/.claude/memory-handoffs</text></symbol><symbol id="22"><text x="2.004" y="1.67" class="g">pending:</text><text x="18.036" y="1.67" class="g">0</text></symbol><symbol id="23"><text x="2.004" y="1.67" class="g">processed:</text><text x="18.036" y="1.67" class="g">0</text></symbol><symbol id="24"><text y="1.67" class="f">$</text><text x="2.004" y="1.67" class="g">memory-doctor</text><text x="16.032" y="1.67" class="g">lint</text></symbol><symbol id="25"><text y="1.67" class="g">postiz-quickref.md</text></symbol><symbol id="26"><text x="2.004" y="1.67" class="g">[[deleted-card]]</text><text x="19.038" y="1.67" class="g">-</text><text x="21.042" y="1.67" class="g">no</text><text x="24.048" y="1.67" class="g">card</text><text x="29.058" y="1.67" class="g">found</text></symbol><symbol id="27"><text y="1.67" class="g">memory-doctor</text><text x="14.028" y="1.67" class="g">lint:</text><text x="20.04" y="1.67" class="g">1</text><text x="22.044" y="1.67" class="g">dead</text><text x="27.054" y="1.67" class="g">link(s)</text></symbol><symbol id="a"><path fill="transparent" d="M0 0h78v23H0z"/></symbol><symbol id="b"><path fill="#6f7683" d="M0 0h1.102v2.171H0z"/></symbol></defs><path class="a" d="M0 0h78v47.762H0z"/><g style="animation-duration:9.14s;animation-iteration-count:infinite;animation-name:j;animation-timing-function:steps(1,end)"><svg width="4524"><svg><use xlink:href="#a"/><use xlink:href="#b" x="-.004"/></svg><svg x="78"><use xlink:href="#a"/><use xlink:href="#b" x="1.996"/><use xlink:href="#1"/></svg><svg x="156"><use xlink:href="#a"/><use xlink:href="#b" x="2.996"/><use xlink:href="#2"/></svg><svg x="234"><use xlink:href="#a"/><use xlink:href="#b" x="3.996"/><use xlink:href="#3"/></svg><svg x="312"><use xlink:href="#a"/><use xlink:href="#b" x="4.996"/><use xlink:href="#4"/></svg><svg x="390"><use xlink:href="#a"/><use xlink:href="#b" x="5.996"/><use xlink:href="#5"/></svg><svg x="468"><use xlink:href="#a"/><use xlink:href="#b" x="6.996"/><use xlink:href="#6"/></svg><svg x="546"><use xlink:href="#a"/><use xlink:href="#b" x="7.996"/><use xlink:href="#7"/></svg><svg x="624"><use xlink:href="#a"/><use xlink:href="#b" x="8.996"/><use xlink:href="#8"/></svg><svg x="702"><use xlink:href="#a"/><use xlink:href="#b" x="9.996"/><use xlink:href="#9"/></svg><svg x="780"><use xlink:href="#a"/><use xlink:href="#b" x="10.996"/><use xlink:href="#10"/></svg><svg x="858"><use xlink:href="#a"/><use xlink:href="#b" x="11.996"/><use xlink:href="#11"/></svg><svg x="936"><use xlink:href="#a"/><use xlink:href="#b" x="12.996"/><use xlink:href="#12"/></svg><svg x="1014"><use xlink:href="#a"/><use xlink:href="#b" x="13.996"/><use xlink:href="#13"/></svg><svg x="1092"><use xlink:href="#a"/><use xlink:href="#b" x="14.996"/><use xlink:href="#14"/></svg><svg x="1170"><use xlink:href="#a"/><use xlink:href="#b" x="15.996"/><use xlink:href="#14"/></svg><svg x="1248"><use xlink:href="#a"/><use xlink:href="#b" x="16.996"/><text y="1.67" class="f">$</text><text x="2.004" y="1.67" class="g">memory-doctor</text><text x="16.032" y="1.67" class="g">s</text></svg><svg x="1326"><use xlink:href="#a"/><use xlink:href="#b" x="17.996"/><text y="1.67" class="f">$</text><text x="2.004" y="1.67" class="g">memory-doctor</text><text x="16.032" y="1.67" class="g">st</text></svg><svg x="1404"><use xlink:href="#a"/><use xlink:href="#b" x="18.996"/><text y="1.67" class="f">$</text><text x="2.004" y="1.67" class="g">memory-doctor</text><text x="16.032" y="1.67" class="g">sta</text></svg><svg x="1482"><use xlink:href="#a"/><use xlink:href="#b" x="19.996"/><text y="1.67" class="f">$</text><text x="2.004" y="1.67" class="g">memory-doctor</text><text x="16.032" y="1.67" class="g">stat</text></svg><svg x="1560"><use xlink:href="#a"/><use xlink:href="#b" x="20.996"/><text y="1.67" class="f">$</text><text x="2.004" y="1.67" class="g">memory-doctor</text><text x="16.032" y="1.67" class="g">statu</text></svg><svg x="1638"><use xlink:href="#a"/><use xlink:href="#b" x="21.996"/><use xlink:href="#15"/></svg><svg x="1716"><use xlink:href="#a"/><use xlink:href="#b" x="-.004" y="2.146"/><use xlink:href="#15"/></svg><svg x="1794"><use xlink:href="#a"/><use xlink:href="#b" x="-.004" y="4.317"/><use xlink:href="#15"/><use xlink:href="#16" y="2.171"/></svg><svg x="1872"><use xlink:href="#a"/><use xlink:href="#b" x="-.004" y="6.488"/><use xlink:href="#15"/><use xlink:href="#16" y="2.171"/><use xlink:href="#17" y="4.342"/></svg><svg x="1950"><use xlink:href="#a"/><use xlink:href="#b" x="-.004" y="8.659"/><use xlink:href="#15"/><use xlink:href="#16" y="2.171"/><use xlink:href="#17" y="4.342"/><use xlink:href="#18" y="6.513"/></svg><svg x="2028"><use xlink:href="#a"/><use xlink:href="#b" x="-.004" y="10.83"/><use xlink:href="#15"/><use xlink:href="#16" y="2.171"/><use xlink:href="#17" y="4.342"/><use xlink:href="#18" y="6.513"/><use xlink:href="#19" y="8.684"/></svg><svg x="2106"><use xlink:href="#a"/><use xlink:href="#b" x="-.004" y="13.001"/><use xlink:href="#15"/><use xlink:href="#16" y="2.171"/><use xlink:href="#17" y="4.342"/><use xlink:href="#18" y="6.513"/><use xlink:href="#19" y="8.684"/><use xlink:href="#20" y="10.855"/></svg><svg x="2184"><use xlink:href="#a"/><use xlink:href="#b" x="-.004" y="15.172"/><use xlink:href="#15"/><use xlink:href="#16" y="2.171"/><use xlink:href="#17" y="4.342"/><use xlink:href="#18" y="6.513"/><use xlink:href="#19" y="8.684"/><use xlink:href="#20" y="10.855"/></svg><svg x="2262"><use xlink:href="#a"/><use xlink:href="#b" x="-.004" y="17.343"/><use xlink:href="#15"/><use xlink:href="#16" y="2.171"/><use xlink:href="#17" y="4.342"/><use xlink:href="#18" y="6.513"/><use xlink:href="#19" y="8.684"/><use xlink:href="#20" y="10.855"/><use xlink:href="#21" y="15.197"/></svg><svg x="2340"><use xlink:href="#a"/><use xlink:href="#b" x="-.004" y="19.514"/><use xlink:href="#15"/><use xlink:href="#16" y="2.171"/><use xlink:href="#17" y="4.342"/><use xlink:href="#18" y="6.513"/><use xlink:href="#19" y="8.684"/><use xlink:href="#20" y="10.855"/><use xlink:href="#21" y="15.197"/><use xlink:href="#22" y="17.368"/></svg><svg x="2418"><use xlink:href="#a"/><use xlink:href="#b" x="-.004" y="21.685"/><use xlink:href="#15"/><use xlink:href="#16" y="2.171"/><use xlink:href="#17" y="4.342"/><use xlink:href="#18" y="6.513"/><use xlink:href="#19" y="8.684"/><use xlink:href="#20" y="10.855"/><use xlink:href="#21" y="15.197"/><use xlink:href="#22" y="17.368"/><use xlink:href="#23" y="19.539"/></svg><svg x="2496"><use xlink:href="#a"/><use xlink:href="#b" x="1.996" y="21.685"/><use xlink:href="#15"/><use xlink:href="#16" y="2.171"/><use xlink:href="#17" y="4.342"/><use xlink:href="#18" y="6.513"/><use xlink:href="#19" y="8.684"/><use xlink:href="#20" y="10.855"/><use xlink:href="#21" y="15.197"/><use xlink:href="#22" y="17.368"/><use xlink:href="#23" y="19.539"/><use xlink:href="#1" y="21.71"/></svg><svg x="2574"><use xlink:href="#a"/><use xlink:href="#b" x="2.996" y="21.685"/><use xlink:href="#15"/><use xlink:href="#16" y="2.171"/><use xlink:href="#17" y="4.342"/><use xlink:href="#18" y="6.513"/><use xlink:href="#19" y="8.684"/><use xlink:href="#20" y="10.855"/><use xlink:href="#21" y="15.197"/><use xlink:href="#22" y="17.368"/><use xlink:href="#23" y="19.539"/><use xlink:href="#2" y="21.71"/></svg><svg x="2652"><use xlink:href="#a"/><use xlink:href="#b" x="3.996" y="21.685"/><use xlink:href="#15"/><use xlink:href="#16" y="2.171"/><use xlink:href="#17" y="4.342"/><use xlink:href="#18" y="6.513"/><use xlink:href="#19" y="8.684"/><use xlink:href="#20" y="10.855"/><use xlink:href="#21" y="15.197"/><use xlink:href="#22" y="17.368"/><use xlink:href="#23" y="19.539"/><use xlink:href="#3" y="21.71"/></svg><svg x="2730"><use xlink:href="#a"/><use xlink:href="#b" x="4.996" y="21.685"/><use xlink:href="#15"/><use xlink:href="#16" y="2.171"/><use xlink:href="#17" y="4.342"/><use xlink:href="#18" y="6.513"/><use xlink:href="#19" y="8.684"/><use xlink:href="#20" y="10.855"/><use xlink:href="#21" y="15.197"/><use xlink:href="#22" y="17.368"/><use xlink:href="#23" y="19.539"/><use xlink:href="#4" y="21.71"/></svg><svg x="2808"><use xlink:href="#a"/><use xlink:href="#b" x="5.996" y="21.685"/><use xlink:href="#15"/><use xlink:href="#16" y="2.171"/><use xlink:href="#17" y="4.342"/><use xlink:href="#18" y="6.513"/><use xlink:href="#19" y="8.684"/><use xlink:href="#20" y="10.855"/><use xlink:href="#21" y="15.197"/><use xlink:href="#22" y="17.368"/><use xlink:href="#23" y="19.539"/><use xlink:href="#5" y="21.71"/></svg><svg x="2886"><use xlink:href="#a"/><use xlink:href="#b" x="6.996" y="21.685"/><use xlink:href="#15"/><use xlink:href="#16" y="2.171"/><use xlink:href="#17" y="4.342"/><use xlink:href="#18" y="6.513"/><use xlink:href="#19" y="8.684"/><use xlink:href="#20" y="10.855"/><use xlink:href="#21" y="15.197"/><use xlink:href="#22" y="17.368"/><use xlink:href="#23" y="19.539"/><use xlink:href="#6" y="21.71"/></svg><svg x="2964"><use xlink:href="#a"/><use xlink:href="#b" x="7.996" y="21.685"/><use xlink:href="#15"/><use xlink:href="#16" y="2.171"/><use xlink:href="#17" y="4.342"/><use xlink:href="#18" y="6.513"/><use xlink:href="#19" y="8.684"/><use xlink:href="#20" y="10.855"/><use xlink:href="#21" y="15.197"/><use xlink:href="#22" y="17.368"/><use xlink:href="#23" y="19.539"/><use xlink:href="#7" y="21.71"/></svg><svg x="3042"><use xlink:href="#a"/><use xlink:href="#b" x="8.996" y="21.685"/><use xlink:href="#15"/><use xlink:href="#16" y="2.171"/><use xlink:href="#17" y="4.342"/><use xlink:href="#18" y="6.513"/><use xlink:href="#19" y="8.684"/><use xlink:href="#20" y="10.855"/><use xlink:href="#21" y="15.197"/><use xlink:href="#22" y="17.368"/><use xlink:href="#23" y="19.539"/><use xlink:href="#8" y="21.71"/></svg><svg x="3120"><use xlink:href="#a"/><use xlink:href="#b" x="9.996" y="21.685"/><use xlink:href="#15"/><use xlink:href="#16" y="2.171"/><use xlink:href="#17" y="4.342"/><use xlink:href="#18" y="6.513"/><use xlink:href="#19" y="8.684"/><use xlink:href="#20" y="10.855"/><use xlink:href="#21" y="15.197"/><use xlink:href="#22" y="17.368"/><use xlink:href="#23" y="19.539"/><use xlink:href="#9" y="21.71"/></svg><svg x="3198"><use xlink:href="#a"/><use xlink:href="#b" x="10.996" y="21.685"/><use xlink:href="#15"/><use xlink:href="#16" y="2.171"/><use xlink:href="#17" y="4.342"/><use xlink:href="#18" y="6.513"/><use xlink:href="#19" y="8.684"/><use xlink:href="#20" y="10.855"/><use xlink:href="#21" y="15.197"/><use xlink:href="#22" y="17.368"/><use xlink:href="#23" y="19.539"/><use xlink:href="#10" y="21.71"/></svg><svg x="3276"><use xlink:href="#a"/><use xlink:href="#b" x="11.996" y="21.685"/><use xlink:href="#15"/><use xlink:href="#16" y="2.171"/><use xlink:href="#17" y="4.342"/><use xlink:href="#18" y="6.513"/><use xlink:href="#19" y="8.684"/><use xlink:href="#20" y="10.855"/><use xlink:href="#21" y="15.197"/><use xlink:href="#22" y="17.368"/><use xlink:href="#23" y="19.539"/><use xlink:href="#11" y="21.71"/></svg><svg x="3354"><use xlink:href="#a"/><use xlink:href="#b" x="12.996" y="21.685"/><use xlink:href="#15"/><use xlink:href="#16" y="2.171"/><use xlink:href="#17" y="4.342"/><use xlink:href="#18" y="6.513"/><use xlink:href="#19" y="8.684"/><use xlink:href="#20" y="10.855"/><use xlink:href="#21" y="15.197"/><use xlink:href="#22" y="17.368"/><use xlink:href="#23" y="19.539"/><use xlink:href="#12" y="21.71"/></svg><svg x="3432"><use xlink:href="#a"/><use xlink:href="#b" x="13.996" y="21.685"/><use xlink:href="#15"/><use xlink:href="#16" y="2.171"/><use xlink:href="#17" y="4.342"/><use xlink:href="#18" y="6.513"/><use xlink:href="#19" y="8.684"/><use xlink:href="#20" y="10.855"/><use xlink:href="#21" y="15.197"/><use xlink:href="#22" y="17.368"/><use xlink:href="#23" y="19.539"/><use xlink:href="#13" y="21.71"/></svg><svg x="3510"><use xlink:href="#a"/><use xlink:href="#b" x="14.996" y="21.685"/><use xlink:href="#15"/><use xlink:href="#16" y="2.171"/><use xlink:href="#17" y="4.342"/><use xlink:href="#18" y="6.513"/><use xlink:href="#19" y="8.684"/><use xlink:href="#20" y="10.855"/><use xlink:href="#21" y="15.197"/><use xlink:href="#22" y="17.368"/><use xlink:href="#23" y="19.539"/><use xlink:href="#14" y="21.71"/></svg><svg x="3588"><use xlink:href="#a"/><use xlink:href="#b" x="15.996" y="21.685"/><use xlink:href="#15"/><use xlink:href="#16" y="2.171"/><use xlink:href="#17" y="4.342"/><use xlink:href="#18" y="6.513"/><use xlink:href="#19" y="8.684"/><use xlink:href="#20" y="10.855"/><use xlink:href="#21" y="15.197"/><use xlink:href="#22" y="17.368"/><use xlink:href="#23" y="19.539"/><use xlink:href="#14" y="21.71"/></svg><svg x="3666"><use xlink:href="#a"/><use xlink:href="#b" x="16.996" y="21.685"/><use xlink:href="#15"/><use xlink:href="#16" y="2.171"/><use xlink:href="#17" y="4.342"/><use xlink:href="#18" y="6.513"/><use xlink:href="#19" y="8.684"/><use xlink:href="#20" y="10.855"/><use xlink:href="#21" y="15.197"/><use xlink:href="#22" y="17.368"/><use xlink:href="#23" y="19.539"/><text y="23.38" class="f">$</text><text x="2.004" y="23.38" class="g">memory-doctor</text><text x="16.032" y="23.38" class="g">l</text></svg><svg x="3744"><use xlink:href="#a"/><use xlink:href="#b" x="17.996" y="21.685"/><use xlink:href="#15"/><use xlink:href="#16" y="2.171"/><use xlink:href="#17" y="4.342"/><use xlink:href="#18" y="6.513"/><use xlink:href="#19" y="8.684"/><use xlink:href="#20" y="10.855"/><use xlink:href="#21" y="15.197"/><use xlink:href="#22" y="17.368"/><use xlink:href="#23" y="19.539"/><text y="23.38" class="f">$</text><text x="2.004" y="23.38" class="g">memory-doctor</text><text x="16.032" y="23.38" class="g">li</text></svg><svg x="3822"><use xlink:href="#a"/><use xlink:href="#b" x="18.996" y="21.685"/><use xlink:href="#15"/><use xlink:href="#16" y="2.171"/><use xlink:href="#17" y="4.342"/><use xlink:href="#18" y="6.513"/><use xlink:href="#19" y="8.684"/><use xlink:href="#20" y="10.855"/><use xlink:href="#21" y="15.197"/><use xlink:href="#22" y="17.368"/><use xlink:href="#23" y="19.539"/><text y="23.38" class="f">$</text><text x="2.004" y="23.38" class="g">memory-doctor</text><text x="16.032" y="23.38" class="g">lin</text></svg><svg x="3900"><use xlink:href="#a"/><use xlink:href="#b" x="19.996" y="21.685"/><use xlink:href="#15"/><use xlink:href="#16" y="2.171"/><use xlink:href="#17" y="4.342"/><use xlink:href="#18" y="6.513"/><use xlink:href="#19" y="8.684"/><use xlink:href="#20" y="10.855"/><use xlink:href="#21" y="15.197"/><use xlink:href="#22" y="17.368"/><use xlink:href="#23" y="19.539"/><use xlink:href="#24" y="21.71"/></svg><svg x="3978"><use xlink:href="#a"/><use xlink:href="#b" x="-.004" y="23.856"/><use xlink:href="#15"/><use xlink:href="#16" y="2.171"/><use xlink:href="#17" y="4.342"/><use xlink:href="#18" y="6.513"/><use xlink:href="#19" y="8.684"/><use xlink:href="#20" y="10.855"/><use xlink:href="#21" y="15.197"/><use xlink:href="#22" y="17.368"/><use xlink:href="#23" y="19.539"/><use xlink:href="#24" y="21.71"/></svg><svg x="4056"><use xlink:href="#a"/><use xlink:href="#b" x="-.004" y="26.027"/><use xlink:href="#15"/><use xlink:href="#16" y="2.171"/><use xlink:href="#17" y="4.342"/><use xlink:href="#18" y="6.513"/><use xlink:href="#19" y="8.684"/><use xlink:href="#20" y="10.855"/><use xlink:href="#21" y="15.197"/><use xlink:href="#22" y="17.368"/><use xlink:href="#23" y="19.539"/><use xlink:href="#24" y="21.71"/></svg><svg x="4134"><use xlink:href="#a"/><use xlink:href="#b" x="-.004" y="28.198"/><use xlink:href="#15"/><use xlink:href="#16" y="2.171"/><use xlink:href="#17" y="4.342"/><use xlink:href="#18" y="6.513"/><use xlink:href="#19" y="8.684"/><use xlink:href="#20" y="10.855"/><use xlink:href="#21" y="15.197"/><use xlink:href="#22" y="17.368"/><use xlink:href="#23" y="19.539"/><use xlink:href="#24" y="21.71"/><use xlink:href="#25" y="26.052"/></svg><svg x="4212"><use xlink:href="#a"/><use xlink:href="#b" x="-.004" y="30.369"/><use xlink:href="#15"/><use xlink:href="#16" y="2.171"/><use xlink:href="#17" y="4.342"/><use xlink:href="#18" y="6.513"/><use xlink:href="#19" y="8.684"/><use xlink:href="#20" y="10.855"/><use xlink:href="#21" y="15.197"/><use xlink:href="#22" y="17.368"/><use xlink:href="#23" y="19.539"/><use xlink:href="#24" y="21.71"/><use xlink:href="#25" y="26.052"/><use xlink:href="#26" y="28.223"/></svg><svg x="4290"><use xlink:href="#a"/><use xlink:href="#b" x="-.004" y="32.54"/><use xlink:href="#15"/><use xlink:href="#16" y="2.171"/><use xlink:href="#17" y="4.342"/><use xlink:href="#18" y="6.513"/><use xlink:href="#19" y="8.684"/><use xlink:href="#20" y="10.855"/><use xlink:href="#21" y="15.197"/><use xlink:href="#22" y="17.368"/><use xlink:href="#23" y="19.539"/><use xlink:href="#24" y="21.71"/><use xlink:href="#25" y="26.052"/><use xlink:href="#26" y="28.223"/></svg><svg x="4368"><use xlink:href="#a"/><use xlink:href="#b" x="-.004" y="34.711"/><use xlink:href="#15"/><use xlink:href="#16" y="2.171"/><use xlink:href="#17" y="4.342"/><use xlink:href="#18" y="6.513"/><use xlink:href="#19" y="8.684"/><use xlink:href="#20" y="10.855"/><use xlink:href="#21" y="15.197"/><use xlink:href="#22" y="17.368"/><use xlink:href="#23" y="19.539"/><use xlink:href="#24" y="21.71"/><use xlink:href="#25" y="26.052"/><use xlink:href="#26" y="28.223"/><use xlink:href="#27" y="32.565"/></svg><svg x="4446"><use xlink:href="#a"/><use xlink:href="#b" x="-.004" y="34.711"/><use xlink:href="#15"/><use xlink:href="#16" y="2.171"/><use xlink:href="#17" y="4.342"/><use xlink:href="#18" y="6.513"/><use xlink:href="#19" y="8.684"/><use xlink:href="#20" y="10.855"/><use xlink:href="#21" y="15.197"/><use xlink:href="#22" y="17.368"/><use xlink:href="#23" y="19.539"/><use xlink:href="#24" y="21.71"/><use xlink:href="#25" y="26.052"/><use xlink:href="#26" y="28.223"/><use xlink:href="#27" y="32.565"/></svg></svg></g></g></svg></svg>