<svg xmlns="http://www.w3.org/2000/svg" xmlns:xlink="http://www.w3.org/1999/xlink" width="808" height="261.68"><rect width="808" height="261.68" rx="5" ry="5" class="a"/><svg y="0%" x="0%"><circle cx="20" cy="20" r="6" fill="#ff5f58"/><circle cx="40" cy="20" r="6" fill="#ffbd2e"/><circle cx="60" cy="20" r="6" fill="#18c132"/></svg><svg height="173.68" viewBox="0 0 74 17.368" width="740" x="29" xmlns="http://www.w3.org/2000/svg" xmlns:xlink="http://www.w3.org/1999/xlink" y="64"><style>@keyframes j{0%{transform:translateX(0)}6.8%{transform:translateX(-74px)}7.2%{transform:translateX(-148px)}7.7%{transform:translateX(-222px)}8.1%{transform:translateX(-296px)}8.6%{transform:translateX(-370px)}9%{transform:translateX(-444px)}9.5%{transform:translateX(-518px)}10%{transform:translateX(-592px)}10.4%{transform:translateX(-666px)}10.9%{transform:translateX(-740px)}11.3%{transform:translateX(-814px)}11.8%{transform:translateX(-888px)}12.2%{transform:translateX(-962px)}12.7%{transform:translateX(-1036px)}13.1%{transform:translateX(-1110px)}13.6%{transform:translateX(-1184px)}14%{transform:translateX(-1258px)}14.5%{transform:translateX(-1332px)}19.6%{transform:translateX(-1406px)}23%{transform:translateX(-1480px)}41.1%{transform:translateX(-1554px)}41.5%{transform:translateX(-1628px)}42%{transform:translateX(-1702px)}42.4%{transform:translateX(-1776px)}42.9%{transform:translateX(-1850px)}43.3%{transform:translateX(-1924px)}43.8%{transform:translateX(-1998px)}44.2%{transform:translateX(-2072px)}44.7%{transform:translateX(-2146px)}45.1%{transform:translateX(-2220px)}45.6%{transform:translateX(-2294px)}46%{transform:translateX(-2368px)}46.5%{transform:translateX(-2442px)}46.9%{transform:translateX(-2516px)}47.4%{transform:translateX(-2590px)}47.9%{transform:translateX(-2664px)}48.3%{transform:translateX(-2738px)}48.8%{transform:translateX(-2812px)}49.2%{transform:translateX(-2886px)}49.7%{transform:translateX(-2960px)}50.1%{transform:translateX(-3034px)}50.6%{transform:translateX(-3108px)}51%{transform:translateX(-3182px)}51.5%{transform:translateX(-3256px)}51.9%{transform:translateX(-3330px)}52.4%{transform:translateX(-3404px)}52.8%{transform:translateX(-3478px)}53.3%{transform:translateX(-3552px)}53.7%{transform:translateX(-3626px)}54.2%{transform:translateX(-3700px)}54.6%{transform:translateX(-3774px)}59.7%{transform:translateX(-3848px)}63.1%{transform:translateX(-3922px)}63.8%{transform:translateX(-3996px)}to{transform:translateX(-4070px)}}.a{fill:#282d35}.f,.g{white-space:pre}.f{fill:#a8cc8c;font-weight:700}.g{fill:#b9c0cb}</style><g font-family="Monaco,Consolas,Menlo,'Bitstream Vera Sans Mono','Powerline Symbols',monospace" font-size="1.67"><defs><symbol id="1"><text y="1.67" class="f">$</text></symbol><symbol id="2"><text y="1.67" class="f">$</text><text x="2.004" y="1.67" class="g">p</text></symbol><symbol id="3"><text y="1.67" class="f">$</text><text x="2.004" y="1.67" class="g">pl</text></symbol><symbol id="4"><text y="1.67" class="f">$</text><text x="2.004" y="1.67" class="g">pla</text></symbol><symbol id="5"><text y="1.67" class="f">$</text><text x="2.004" y="1.67" class="g">plat</text></symbol><symbol id="6"><text y="1.67" class="f">$</text><text x="2.004" y="1.67" class="g">plati</text></symbol><symbol id="7"><text y="1.67" class="f">$</text><text x="2.004" y="1.67" class="g">platin</text></symbol><symbol id="8"><text y="1.67" class="f">$</text><text x="2.004" y="1.67" class="g">plating</text></symbol><symbol id="9"><text y="1.67" class="f">$</text><text x="2.004" y="1.67" class="g">plating</text><text x="10.02" y="1.67" class="g">--version</text></symbol><symbol id="10"><text y="1.67" class="g">plating</text><text x="8.016" y="1.67" class="g">0.1.0</text></symbol><symbol id="11"><text y="1.67" class="f">$</text><text x="2.004" y="1.67" class="g">plating</text><text x="10.02" y="1.67" class="g">render</text></symbol><symbol id="12"><text y="1.67" class="f">$</text><text x="2.004" y="1.67" class="g">plating</text><text x="10.02" y="1.67" class="g">render</text><text x="17.034" y="1.67" class="g">quickstart.json</text></symbol><symbol id="13"><text y="1.67" class="g">plating:</text><text x="9.018" y="1.67" class="g">leak</text><text x="14.028" y="1.67" class="g">scan</text><text x="19.038" y="1.67" class="g">clean</text><text x="25.05" y="1.67" class="g">(quickstart.cast)</text></symbol><symbol id="14"><text y="1.67" class="g">plating:</text><text x="9.018" y="1.67" class="g">wrote</text><text x="15.03" y="1.67" class="g">quickstart.svg</text></symbol><symbol id="a"><path fill="transparent" d="M0 0h74v9H0z"/></symbol><symbol id="b"><path fill="#6f7683" d="M0 0h1.102v2.171H0z"/></symbol></defs><path class="a" d="M0 0h74v17.368H0z"/><g style="animation-duration:8.84s;animation-iteration-count:infinite;animation-name:j;animation-timing-function:steps(1,end)"><svg width="4144"><svg><use xlink:href="#a"/><use xlink:href="#b" x="-.004"/></svg><svg x="74"><use xlink:href="#a"/><use xlink:href="#b" x="1.996"/><use xlink:href="#1"/></svg><svg x="148"><use xlink:href="#a"/><use xlink:href="#b" x="2.996"/><use xlink:href="#2"/></svg><svg x="222"><use xlink:href="#a"/><use xlink:href="#b" x="3.996"/><use xlink:href="#3"/></svg><svg x="296"><use xlink:href="#a"/><use xlink:href="#b" x="4.996"/><use xlink:href="#4"/></svg><svg x="370"><use xlink:href="#a"/><use xlink:href="#b" x="5.996"/><use xlink:href="#5"/></svg><svg x="444"><use xlink:href="#a"/><use xlink:href="#b" x="6.996"/><use xlink:href="#6"/></svg><svg x="518"><use xlink:href="#a"/><use xlink:href="#b" x="7.996"/><use xlink:href="#7"/></svg><svg x="592"><use xlink:href="#a"/><use xlink:href="#b" x="8.996"/><use xlink:href="#8"/></svg><svg x="666"><use xlink:href="#a"/><use xlink:href="#b" x="9.996"/><use xlink:href="#8"/></svg><svg x="740"><use xlink:href="#a"/><use xlink:href="#b" x="10.996"/><text y="1.67" class="f">$</text><text x="2.004" y="1.67" class="g">plating</text><text x="10.02" y="1.67" class="g">-</text></svg><svg x="814"><use xlink:href="#a"/><use xlink:href="#b" x="11.996"/><text y="1.67" class="f">$</text><text x="2.004" y="1.67" class="g">plating</text><text x="10.02" y="1.67" class="g">--</text></svg><svg x="888"><use xlink:href="#a"/><use xlink:href="#b" x="12.996"/><text y="1.67" class="f">$</text><text x="2.004" y="1.67" class="g">plating</text><text x="10.02" y="1.67" class="g">--v</text></svg><svg x="962"><use xlink:href="#a"/><use xlink:href="#b" x="13.996"/><text y="1.67" class="f">$</text><text x="2.004" y="1.67" class="g">plating</text><text x="10.02" y="1.67" class="g">--ve</text></svg><svg x="1036"><use xlink:href="#a"/><use xlink:href="#b" x="14.996"/><text y="1.67" class="f">$</text><text x="2.004" y="1.67" class="g">plating</text><text x="10.02" y="1.67" class="g">--ver</text></svg><svg x="1110"><use xlink:href="#a"/><use xlink:href="#b" x="15.996"/><text y="1.67" class="f">$</text><text x="2.004" y="1.67" class="g">plating</text><text x="10.02" y="1.67" class="g">--vers</text></svg><svg x="1184"><use xlink:href="#a"/><use xlink:href="#b" x="16.996"/><text y="1.67" class="f">$</text><text x="2.004" y="1.67" class="g">plating</text><text x="10.02" y="1.67" class="g">--versi</text></svg><svg x="1258"><use xlink:href="#a"/><use xlink:href="#b" x="17.996"/><text y="1.67" class="f">$</text><text x="2.004" y="1.67" class="g">plating</text><text x="10.02" y="1.67" class="g">--versio</text></svg><svg x="1332"><use xlink:href="#a"/><use xlink:href="#b" x="18.996"/><use xlink:href="#9"/></svg><svg x="1406"><use xlink:href="#a"/><use xlink:href="#b" x="-.004" y="2.146"/><use xlink:href="#9"/></svg><svg x="1480"><use xlink:href="#a"/><use xlink:href="#b" x="-.004" y="4.317"/><use xlink:href="#9"/><use xlink:href="#10" y="2.171"/></svg><svg x="1554"><use xlink:href="#a"/><use xlink:href="#b" x="1.996" y="4.317"/><use xlink:href="#9"/><use xlink:href="#10" y="2.171"/><use xlink:href="#1" y="4.342"/></svg><svg x="1628"><use xlink:href="#a"/><use xlink:href="#b" x="2.996" y="4.317"/><use xlink:href="#9"/><use xlink:href="#10" y="2.171"/><use xlink:href="#2" y="4.342"/></svg><svg x="1702"><use xlink:href="#a"/><use xlink:href="#b" x="3.996" y="4.317"/><use xlink:href="#9"/><use xlink:href="#10" y="2.171"/><use xlink:href="#3" y="4.342"/></svg><svg x="1776"><use xlink:href="#a"/><use xlink:href="#b" x="4.996" y="4.317"/><use xlink:href="#9"/><use xlink:href="#10" y="2.171"/><use xlink:href="#4" y="4.342"/></svg><svg x="1850"><use xlink:href="#a"/><use xlink:href="#b" x="5.996" y="4.317"/><use xlink:href="#9"/><use xlink:href="#10" y="2.171"/><use xlink:href="#5" y="4.342"/></svg><svg x="1924"><use xlink:href="#a"/><use xlink:href="#b" x="6.996" y="4.317"/><use xlink:href="#9"/><use xlink:href="#10" y="2.171"/><use xlink:href="#6" y="4.342"/></svg><svg x="1998"><use xlink:href="#a"/><use xlink:href="#b" x="7.996" y="4.317"/><use xlink:href="#9"/><use xlink:href="#10" y="2.171"/><use xlink:href="#7" y="4.342"/></svg><svg x="2072"><use xlink:href="#a"/><use xlink:href="#b" x="8.996" y="4.317"/><use xlink:href="#9"/><use xlink:href="#10" y="2.171"/><use xlink:href="#8" y="4.342"/></svg><svg x="2146"><use xlink:href="#a"/><use xlink:href="#b" x="9.996" y="4.317"/><use xlink:href="#9"/><use xlink:href="#10" y="2.171"/><use xlink:href="#8" y="4.342"/></svg><svg x="2220"><use xlink:href="#a"/><use xlink:href="#b" x="10.996" y="4.317"/><use xlink:href="#9"/><use xlink:href="#10" y="2.171"/><text y="6.012" class="f">$</text><text x="2.004" y="6.012" class="g">plating</text><text x="10.02" y="6.012" class="g">r</text></svg><svg x="2294"><use xlink:href="#a"/><use xlink:href="#b" x="11.996" y="4.317"/><use xlink:href="#9"/><use xlink:href="#10" y="2.171"/><text y="6.012" class="f">$</text><text x="2.004" y="6.012" class="g">plating</text><text x="10.02" y="6.012" class="g">re</text></svg><svg x="2368"><use xlink:href="#a"/><use xlink:href="#b" x="12.996" y="4.317"/><use xlink:href="#9"/><use xlink:href="#10" y="2.171"/><text y="6.012" class="f">$</text><text x="2.004" y="6.012" class="g">plating</text><text x="10.02" y="6.012" class="g">ren</text></svg><svg x="2442"><use xlink:href="#a"/><use xlink:href="#b" x="13.996" y="4.317"/><use xlink:href="#9"/><use xlink:href="#10" y="2.171"/><text y="6.012" class="f">$</text><text x="2.004" y="6.012" class="g">plating</text><text x="10.02" y="6.012" class="g">rend</text></svg><svg x="2516"><use xlink:href="#a"/><use xlink:href="#b" x="14.996" y="4.317"/><use xlink:href="#9"/><use xlink:href="#10" y="2.171"/><text y="6.012" class="f">$</text><text x="2.004" y="6.012" class="g">plating</text><text x="10.02" y="6.012" class="g">rende</text></svg><svg x="2590"><use xlink:href="#a"/><use xlink:href="#b" x="15.996" y="4.317"/><use xlink:href="#9"/><use xlink:href="#10" y="2.171"/><use xlink:href="#11" y="4.342"/></svg><svg x="2664"><use xlink:href="#a"/><use xlink:href="#b" x="16.996" y="4.317"/><use xlink:href="#9"/><use xlink:href="#10" y="2.171"/><use xlink:href="#11" y="4.342"/></svg><svg x="2738"><use xlink:href="#a"/><use xlink:href="#b" x="17.996" y="4.317"/><use xlink:href="#9"/><use xlink:href="#10" y="2.171"/><text y="6.012" class="f">$</text><text x="2.004" y="6.012" class="g">plating</text><text x="10.02" y="6.012" class="g">render</text><text x="17.034" y="6.012" class="g">q</text></svg><svg x="2812"><use xlink:href="#a"/><use xlink:href="#b" x="18.996" y="4.317"/><use xlink:href="#9"/><use xlink:href="#10" y="2.171"/><text y="6.012" class="f">$</text><text x="2.004" y="6.012" class="g">plating</text><text x="10.02" y="6.012" class="g">render</text><text x="17.034" y="6.012" class="g">qu</text></svg><svg x="2886"><use xlink:href="#a"/><use xlink:href="#b" x="19.996" y="4.317"/><use xlink:href="#9"/><use xlink:href="#10" y="2.171"/><text y="6.012" class="f">$</text><text x="2.004" y="6.012" class="g">plating</text><text x="10.02" y="6.012" class="g">render</text><text x="17.034" y="6.012" class="g">qui</text></svg><svg x="2960"><use xlink:href="#a"/><use xlink:href="#b" x="20.996" y="4.317"/><use xlink:href="#9"/><use xlink:href="#10" y="2.171"/><text y="6.012" class="f">$</text><text x="2.004" y="6.012" class="g">plating</text><text x="10.02" y="6.012" class="g">render</text><text x="17.034" y="6.012" class="g">quic</text></svg><svg x="3034"><use xlink:href="#a"/><use xlink:href="#b" x="21.996" y="4.317"/><use xlink:href="#9"/><use xlink:href="#10" y="2.171"/><text y="6.012" class="f">$</text><text x="2.004" y="6.012" class="g">plating</text><text x="10.02" y="6.012" class="g">render</text><text x="17.034" y="6.012" class="g">quick</text></svg><svg x="3108"><use xlink:href="#a"/><use xlink:href="#b" x="22.996" y="4.317"/><use xlink:href="#9"/><use xlink:href="#10" y="2.171"/><text y="6.012" class="f">$</text><text x="2.004" y="6.012" class="g">plating</text><text x="10.02" y="6.012" class="g">render</text><text x="17.034" y="6.012" class="g">quicks</text></svg><svg x="3182"><use xlink:href="#a"/><use xlink:href="#b" x="23.996" y="4.317"/><use xlink:href="#9"/><use xlink:href="#10" y="2.171"/><text y="6.012" class="f">$</text><text x="2.004" y="6.012" class="g">plating</text><text x="10.02" y="6.012" class="g">render</text><text x="17.034" y="6.012" class="g">quickst</text></svg><svg x="3256"><use xlink:href="#a"/><use xlink:href="#b" x="24.996" y="4.317"/><use xlink:href="#9"/><use xlink:href="#10" y="2.171"/><text y="6.012" class="f">$</text><text x="2.004" y="6.012" class="g">plating</text><text x="10.02" y="6.012" class="g">render</text><text x="17.034" y="6.012" class="g">quicksta</text></svg><svg x="3330"><use xlink:href="#a"/><use xlink:href="#b" x="25.996" y="4.317"/><use xlink:href="#9"/><use xlink:href="#10" y="2.171"/><text y="6.012" class="f">$</text><text x="2.004" y="6.012" class="g">plating</text><text x="10.02" y="6.012" class="g">render</text><text x="17.034" y="6.012" class="g">quickstar</text></svg><svg x="3404"><use xlink:href="#a"/><use xlink:href="#b" x="26.996" y="4.317"/><use xlink:href="#9"/><use xlink:href="#10" y="2.171"/><text y="6.012" class="f">$</text><text x="2.004" y="6.012" class="g">plating</text><text x="10.02" y="6.012" class="g">render</text><text x="17.034" y="6.012" class="g">quickstart</text></svg><svg x="3478"><use xlink:href="#a"/><use xlink:href="#b" x="27.996" y="4.317"/><use xlink:href="#9"/><use xlink:href="#10" y="2.171"/><text y="6.012" class="f">$</text><text x="2.004" y="6.012" class="g">plating</text><text x="10.02" y="6.012" class="g">render</text><text x="17.034" y="6.012" class="g">quickstart.</text></svg><svg x="3552"><use xlink:href="#a"/><use xlink:href="#b" x="28.996" y="4.317"/><use xlink:href="#9"/><use xlink:href="#10" y="2.171"/><text y="6.012" class="f">$</text><text x="2.004" y="6.012" class="g">plating</text><text x="10.02" y="6.012" class="g">render</text><text x="17.034" y="6.012" class="g">quickstart.j</text></svg><svg x="3626"><use xlink:href="#a"/><use xlink:href="#b" x="29.996" y="4.317"/><use xlink:href="#9"/><use xlink:href="#10" y="2.171"/><text y="6.012" class="f">$</text><text x="2.004" y="6.012" class="g">plating</text><text x="10.02" y="6.012" class="g">render</text><text x="17.034" y="6.012" class="g">quickstart.js</text></svg><svg x="3700"><use xlink:href="#a"/><use xlink:href="#b" x="30.996" y="4.317"/><use xlink:href="#9"/><use xlink:href="#10" y="2.171"/><text y="6.012" class="f">$</text><text x="2.004" y="6.012" class="g">plating</text><text x="10.02" y="6.012" class="g">render</text><text x="17.034" y="6.012" class="g">quickstart.jso</text></svg><svg x="3774"><use xlink:href="#a"/><use xlink:href="#b" x="31.996" y="4.317"/><use xlink:href="#9"/><use xlink:href="#10" y="2.171"/><use xlink:href="#12" y="4.342"/></svg><svg x="3848"><use xlink:href="#a"/><use xlink:href="#b" x="-.004" y="6.488"/><use xlink:href="#9"/><use xlink:href="#10" y="2.171"/><use xlink:href="#12" y="4.342"/></svg><svg x="3922"><use xlink:href="#a"/><use xlink:href="#b" x="-.004" y="8.659"/><use xlink:href="#9"/><use xlink:href="#10" y="2.171"/><use xlink:href="#12" y="4.342"/><use xlink:href="#13" y="6.513"/></svg><svg x="3996"><use xlink:href="#a"/><use xlink:href="#b" x="-.004" y="10.83"/><use xlink:href="#9"/><use xlink:href="#10" y="2.171"/><use xlink:href="#12" y="4.342"/><use xlink:href="#13" y="6.513"/><use xlink:href="#14" y="8.684"/></svg><svg x="4070"><use xlink:href="#a"/><use xlink:href="#b" x="-.004" y="10.83"/><use xlink:href="#9"/><use xlink:href="#10" y="2.171"/><use xlink:href="#12" y="4.342"/><use xlink:href="#13" y="6.513"/><use xlink:href="#14" y="8.684"/></svg></svg></g></g></svg></svg>